<svg id="Layer_3" enable-background="new 0 0 64 64" height="512" viewBox="0 0 64 64" width="512" xmlns="http://www.w3.org/2000/svg"><circle cx="12" cy="34" fill="#FF4500" r="6"/><g fill="#191406FF"><path d="m15 34c0-1.654-1.346-3-3-3s-3 1.346-3 3 1.346 3 3 3 3-1.346 3-3zm-4 0c0-.551.449-1 1-1s1 .449 1 1-.449 1-1 1-1-.449-1-1z"/><path d="m28 7c3.309 0 6 2.691 6 6h2c0-4.411-3.589-8-8-8z"/><path d="m38 13h2c0-6.617-5.383-12-12-12v2c5.514 0 10 4.486 10 10z"/><path d="m61 46c0-.552-.448-1-1-1h-1v-13h-2v13h-1c-.552 0-1 .448-1 1v15h-2v-10c0-.552-.448-1-1-1h-1v-13h-2v13h-1c-.552 0-1 .448-1 1v10h-6v-3c0-.552-.448-1-1-1h-7v-3c0-.552-.448-1-1-1h-13.232l-3.427-12.851c1.056-.576 1.943-1.421 2.582-2.436 1.014.175 2.042.287 3.077.287 4.808 0 9.328-1.872 12.728-5.272.188-.188.293-.442.293-.707s-.105-.52-.293-.707l-11.314-11.314 3.567-3.567c.595.352 1.279.567 2.019.567 2.206 0 4-1.794 4-4s-1.794-4-4-4-4 1.794-4 4c0 .74.215 1.424.567 2.019l-3.567 3.567-11.314-11.314c-.375-.375-1.039-.375-1.414 0-3.4 3.4-5.272 7.92-5.272 12.728 0 3.668 1.097 7.159 3.155 10.158-.728 1.104-1.155 2.423-1.155 3.842 0 2.65 1.481 4.961 3.658 6.149l-3.426 12.851h-1.232c-.552 0-1 .448-1 1v7h-2v2h3 28 16 4 4 4 3v-2h-2zm-33-35c1.103 0 2 .897 2 2s-.897 2-2 2-2-.897-2-2 .897-2 2-2zm11 48v2h-6v-2zm-30-49.585 22.585 22.585c-2.925 2.586-6.647 4-10.585 4-.755 0-1.505-.072-2.249-.177.157-.582.249-1.192.249-1.823 0-3.86-3.14-7-7-7-1.701 0-3.261.611-4.475 1.623-1.653-2.572-2.525-5.528-2.525-8.623 0-3.938 1.414-7.66 4-10.585zm-2 24.585c0-2.757 2.243-5 5-5s5 2.243 5 5-2.243 5-5 5-5-2.243-5-5zm3.543 6.845c.47.1.957.155 1.457.155s.987-.055 1.457-.155l3.241 12.155h-9.396zm-5.543 20.155v-6h26v6zm44 0v-9h2v9zm8 0v-14h2v14z"/><path d="m60 1c-1.654 0-3 1.346-3 3s1.346 3 3 3 3-1.346 3-3-1.346-3-3-3zm0 4c-.551 0-1-.449-1-1s.449-1 1-1 1 .449 1 1-.449 1-1 1z"/><path d="m49 7c1.654 0 3-1.346 3-3s-1.346-3-3-3-3 1.346-3 3 1.346 3 3 3zm0-4c.551 0 1 .449 1 1s-.449 1-1 1-1-.449-1-1 .449-1 1-1z"/><path d="m49 27c1.654 0 3-1.346 3-3s-1.346-3-3-3-3 1.346-3 3 1.346 3 3 3zm0-4c.551 0 1 .449 1 1s-.449 1-1 1-1-.449-1-1 .449-1 1-1z"/></g></svg>
