<svg version="1.1" id="Layer_1" xmlns="http://www.w3.org/2000/svg" xmlns:xlink="http://www.w3.org/1999/xlink" x="0px" y="0px"
	 width="100%" viewBox="0 0 416 368" enable-background="new 0 0 416 368" xml:space="preserve">
<path fill="#191406FF" opacity="1.000000" stroke="none"
	d="
M295.907776,194.920090
	C285.827026,203.658234 275.989136,212.135330 266.197632,220.665634
	C263.711121,222.831848 261.622681,222.696503 259.274994,220.352310
	C250.788177,211.878036 242.233109,203.471085 233.626923,195.117981
	C230.910782,192.481720 230.838562,190.079514 233.475311,187.406021
	C234.992432,185.867767 236.379013,184.194626 237.758240,182.527512
	C245.658691,172.978165 246.150772,165.224136 239.022964,154.909454
	C236.395020,151.106567 234.361404,148.071930 236.334351,142.844513
	C238.925369,135.979507 226.830078,120.465843 216.737778,125.101860
	C212.634064,126.986954 209.979950,125.407356 207.054916,122.665398
	C196.794449,113.047104 189.479568,113.059296 179.230423,122.383286
	C170.454208,130.367294 170.413223,130.409286 161.830307,122.032005
	C154.679672,115.052689 147.550858,108.046410 140.584473,100.884674
	C136.321396,96.502045 136.592560,94.730293 141.817886,91.667564
	C157.529938,82.458244 174.559662,77.114319 192.541107,74.561348
	C232.019379,68.956306 267.463409,78.471542 298.709320,103.156723
	C314.399261,115.552254 326.128815,131.147110 334.309723,149.430374
	C335.448029,151.974442 334.957520,153.757477 333.463623,155.825806
	C324.727509,167.920746 313.834930,177.987350 303.147736,188.248642
	C300.866333,190.439148 298.496765,192.537811 295.907776,194.920090
z"/>
<path fill="#696969" opacity="1.000000" stroke="none"
	d="
M200.566223,242.547241
	C205.768738,236.918564 205.800476,236.886063 200.503510,231.711792
	C197.419937,228.699661 194.215179,225.811584 190.511902,222.350861
	C185.468231,227.298294 180.588852,231.961624 175.848389,236.762146
	C167.868408,244.843262 162.536774,245.204422 155.588074,236.457825
	C144.843582,222.933304 132.740860,210.937271 119.185631,200.294159
	C115.271584,197.220963 115.106468,192.332657 118.737053,187.890488
	C123.370552,182.221207 128.218964,176.707367 133.270233,171.408203
	C135.839920,168.712402 135.817932,166.797668 133.108566,164.407684
	C130.239182,161.876541 127.514099,159.172348 124.839737,156.432678
	C122.788963,154.331818 121.083755,154.240891 119.014091,156.494873
	C115.974632,159.805023 112.664268,162.864609 109.551094,166.109421
	C107.128998,168.633926 104.652161,168.814316 102.153587,166.419022
	C95.661682,160.195435 89.215157,153.924149 82.786369,147.635239
	C80.437286,145.337280 80.557526,143.099121 82.944183,140.753342
	C93.753639,130.129089 104.511887,119.452606 115.263580,108.769775
	C117.831512,106.218292 120.148689,106.553062 122.579361,108.994408
	C128.572464,115.013832 134.690659,120.909714 140.633133,126.978104
	C143.416336,129.820297 143.245392,132.816284 140.511642,135.808456
	C137.854828,138.716400 134.505997,141.045517 132.593521,144.772171
	C135.655823,149.120987 139.674881,152.397247 143.165466,156.155334
	C144.863342,157.983353 146.290070,157.326324 147.824905,155.857468
	C151.796265,152.056808 155.722885,148.197098 159.874039,144.599442
	C166.466217,138.886276 169.014084,138.991547 174.975067,145.110184
	C188.227371,158.712952 201.443359,172.351486 214.607452,186.039597
	C220.797424,192.475952 220.639603,194.087830 214.468887,200.401840
	C210.293732,204.673950 205.241806,208.041779 200.995285,213.480499
	C205.193512,217.689316 209.296661,221.949799 213.580612,226.019928
	C215.133072,227.494888 216.653946,226.388123 217.926331,225.130371
	C220.295593,222.788437 222.629410,220.406662 225.078400,218.150482
	C227.692963,215.741806 230.447556,215.623764 233.033493,218.212402
	C239.154755,224.340027 245.236160,230.507538 251.322769,236.669708
	C253.614334,238.989716 253.614975,241.268539 251.259430,243.610031
	C240.389160,254.415512 229.529068,265.231384 218.710663,276.088684
	C216.539276,278.267883 214.537308,278.531952 212.286636,276.278900
	C206.164337,270.150146 200.003540,264.059875 193.867523,257.944794
	C191.144424,255.230957 191.047638,252.422455 193.705566,249.614883
	C195.881363,247.316620 198.113342,245.071518 200.566223,242.547241
z"/>
<path fill="#191406FF" opacity="1.000000" stroke="none"
	d="
M358.373535,96.197525
	C374.308197,101.293144 381.584503,114.680069 376.937073,130.444397
	C372.437561,145.706955 363.206787,158.445770 354.322113,171.332321
	C354.039490,171.742233 353.720398,172.135742 353.369873,172.488831
	C347.632172,178.268448 346.233978,184.609009 346.962708,193.131577
	C349.701416,225.161133 342.092529,254.880798 323.523224,281.471405
	C319.271149,287.560303 317.494873,287.835999 312.276917,282.663452
	C297.256012,267.773254 282.351166,252.765991 267.347473,237.858322
	C264.574127,235.102737 264.801971,233.058502 267.787598,230.510696
	C287.807526,213.426605 307.382477,195.845169 325.554871,176.780731
	C338.211243,163.503067 350.421021,149.840988 358.486572,133.084213
	C359.424286,131.136002 360.367676,129.181137 361.142944,127.165672
	C365.442627,115.987892 361.102112,107.649323 349.333527,104.721512
	C338.739990,102.086037 327.980194,101.806236 317.134155,102.710114
	C313.309692,103.028839 309.280212,104.505943 304.410919,100.990288
	C322.657593,95.370621 339.991486,92.681374 358.373535,96.197525
z"/>
<path fill="#191406FF" opacity="1.000000" stroke="none"
	d="
M52.804077,285.867432
	C51.318695,291.354950 49.580753,296.334259 49.101501,301.729370
	C47.745220,316.997467 57.155293,323.410767 69.069290,325.619324
	C82.696487,328.145477 95.939735,324.861572 108.962997,321.743866
	C140.723145,314.140656 169.316315,299.178986 196.938721,282.231964
	C200.670654,279.942352 203.640579,279.261963 207.081955,282.780121
	C222.219070,298.255066 237.544937,313.545227 252.712479,328.990662
	C257.598816,333.966522 257.033020,336.273041 250.440979,338.224884
	C231.214157,343.917694 211.688980,345.001862 191.750107,342.730103
	C176.285492,340.968109 161.922836,336.245972 148.127731,329.414703
	C145.058792,327.895020 142.290161,328.542877 139.484100,329.653992
	C124.254784,335.684540 108.520813,340.052490 92.269356,341.705078
	C78.236061,343.132111 63.896992,344.322662 50.914219,336.489471
	C38.351360,328.909668 33.673866,318.512634 37.142857,304.253143
	C40.844379,289.037811 49.177292,276.225067 59.394886,264.566223
	C59.825645,264.074677 60.374702,263.644226 60.949444,263.335938
	C61.353897,263.118988 61.895515,263.157776 63.742313,262.867889
	C59.922363,270.886475 56.438919,278.198700 52.804077,285.867432
z"/>
<path fill="#696969" opacity="1.000000" stroke="none"
	d="
M60.640533,224.341461
	C58.795757,220.953278 56.731487,218.122253 55.631344,214.735733
	C53.598564,208.478210 54.960094,205.222198 61.254124,204.060822
	C72.462769,201.992599 83.746674,201.648361 94.932961,204.527054
	C103.728981,206.790634 111.861305,210.480209 119.179428,215.893921
	C120.905167,217.170593 122.556267,217.943298 124.539879,216.265320
	C126.614555,214.510315 128.640152,215.279480 130.346680,216.894348
	C133.488953,219.867844 136.537125,222.941544 139.595596,226.002396
	C140.684479,227.092102 141.990845,228.726883 140.979126,229.933624
	C138.032608,233.448105 140.675049,235.811462 142.324905,238.296768
	C153.250885,254.755264 157.759628,272.727844 155.292267,292.378876
	C155.044678,294.350769 154.757080,296.335754 154.256958,298.254425
	C152.856323,303.627869 150.080338,305.183380 144.553452,303.839722
	C129.038162,300.067688 116.244980,291.566742 105.022430,280.585114
	C102.196327,277.819702 100.554970,277.390198 97.312630,280.073608
	C92.419395,284.123352 84.334549,283.098236 79.911980,278.640900
	C75.816483,274.513214 75.171005,267.174225 78.755829,262.084106
	C80.246330,259.967743 81.259468,258.180420 79.370575,255.878235
	C71.606140,246.415009 65.788597,235.792633 60.640533,224.341461
M121.216438,263.469696
	C123.289040,264.486053 125.688263,266.232910 127.493629,263.779114
	C129.258057,261.380951 130.275085,258.403809 127.947220,255.480453
	C126.394310,253.530334 124.985970,251.465546 123.445641,249.504929
	C115.116386,238.903091 105.092216,230.232071 93.395302,223.550751
	C91.071312,222.223282 87.842957,220.048355 86.203209,223.991745
	C84.022942,229.235077 84.432693,235.083237 83.894814,240.667160
	C83.639450,243.318054 86.307030,245.220154 87.795372,247.394043
	C89.970818,250.571564 93.030937,253.238052 93.382301,257.900177
	C97.907150,255.031052 100.860886,251.419739 104.064011,248.148804
	C106.782242,245.373032 108.714012,245.486557 111.542725,248.195160
	C114.145653,250.687546 114.965858,252.519165 111.966019,255.016617
	C110.056076,256.606689 109.518417,258.245911 111.059708,260.613373
	C112.561760,262.920563 114.062492,264.057922 116.765762,262.727722
	C118.055023,262.093292 119.365364,262.333313 121.216438,263.469696
z"/>
<path fill="#696969" opacity="1.000000" stroke="none"
	d="
M305.804932,291.209839
	C314.347076,299.804932 314.143127,298.692993 306.264343,306.924042
	C297.177063,316.417542 288.008972,325.834015 278.958069,335.361877
	C276.139313,338.329163 273.735321,338.164398 270.952454,335.310364
	C264.914581,329.118042 258.819092,322.976288 252.578644,316.989502
	C249.468124,314.005463 249.599167,311.741119 252.681000,308.729187
	C263.144287,298.503235 273.444550,288.108276 283.691345,277.664337
	C286.660919,274.637634 289.205719,274.545135 292.147949,277.565796
	C296.554779,282.090149 301.086670,286.492645 305.804932,291.209839
z"/>
<path fill="#696969" opacity="1.000000" stroke="none"
	d="
M279.737762,273.763855
	C269.336609,284.097809 259.089783,294.093567 249.067673,304.309784
	C245.758896,307.682678 243.280884,307.829742 239.992722,304.303253
	C234.661026,298.585083 229.008698,293.162231 223.413330,287.694977
	C220.356064,284.707703 219.973434,282.217834 223.367462,278.924896
	C233.758789,268.843048 243.926376,258.528259 254.075882,248.200836
	C257.191376,245.030746 259.992615,244.974106 263.038330,248.104767
	C268.724976,253.950012 274.340027,259.870453 280.183838,265.555054
	C283.212799,268.501465 282.906769,270.932678 279.737762,273.763855
z"/>
<path fill="#696969" opacity="1.000000" stroke="none"
	d="
M105.707382,110.709816
	C97.078125,119.254738 88.603668,127.462776 80.366158,135.902100
	C77.185783,139.160385 74.614159,139.055557 71.526321,135.966949
	C65.886993,130.326157 60.159355,124.770462 54.361492,119.292587
	C50.957607,116.076576 51.102566,113.260132 54.406956,110.015724
	C64.246445,100.354912 73.917641,90.522919 83.723991,80.828011
	C87.934044,76.665810 89.558411,76.709633 93.639954,80.760773
	C99.065521,86.145912 104.457481,91.565094 109.841988,96.991379
	C114.304916,101.488930 114.282394,102.140221 109.801498,106.554863
	C108.499504,107.837601 107.237244,109.160675 105.707382,110.709816
z"/>
<path fill="#696969" opacity="1.000000" stroke="none"
	d="
M204.220581,166.779587
	C195.852646,158.172272 187.849197,149.698273 179.540634,141.534836
	C176.069092,138.123917 176.085602,135.559601 179.772141,132.550766
	C182.601273,130.241714 185.037781,127.436508 187.939560,125.235115
	C192.240952,121.971909 196.458847,122.089729 200.823181,125.270058
	C202.429611,126.440681 203.863205,127.856056 205.330154,129.209091
	C209.161240,132.742737 212.489685,136.917664 218.646133,132.392563
	C221.602371,130.219681 225.223328,132.056168 227.508545,134.791260
	C229.838654,137.580078 230.351517,141.230408 228.168716,144.078751
	C225.433014,147.648636 226.373581,150.061829 229.243103,152.574432
	C229.367569,152.683411 229.469421,152.818329 229.580963,152.941910
	C240.646118,165.203705 239.498932,174.450760 225.832413,184.047424
	C223.440475,185.727051 221.853775,184.740097 220.205673,183.059189
	C214.963806,177.712952 209.710663,172.377747 204.220581,166.779587
z"/>
<path fill="#696969" opacity="1.000000" stroke="none"
	d="
M80.497131,67.689049
	C84.267136,71.193153 83.639473,74.049767 80.362228,77.196388
	C70.291122,86.866081 60.310574,96.633034 50.445488,106.512627
	C47.341846,109.620827 44.798672,110.017899 41.684959,106.633873
	C36.057983,100.518433 30.283924,94.537071 24.513784,88.555191
	C22.003609,85.952896 22.365086,83.685013 24.784584,81.246666
	C34.383450,71.573044 43.846951,61.764011 53.514900,52.160477
	C58.470867,47.237522 60.220940,47.375256 65.106186,52.229073
	C70.176918,57.267185 75.196869,62.356403 80.497131,67.689049
z"/>
<path fill="#FF4500" opacity="1.000000" stroke="none"
	d="
M392.300110,55.616844
	C394.984100,56.705383 398.961456,56.100643 398.927795,59.457920
	C398.894867,62.743469 394.922913,62.845592 392.626709,63.045872
	C382.241089,63.951733 377.097900,69.702461 375.402283,79.615105
	C374.936340,82.339195 374.571503,86.718170 371.207825,86.783249
	C367.252960,86.859764 367.805634,82.181755 366.716919,79.423042
	C365.560120,76.491753 364.565491,73.486847 363.680237,70.461357
	C363.078003,68.403107 361.578369,67.572563 359.786926,66.996780
	C355.203308,65.523575 350.600250,64.110306 346.025085,62.611675
	C344.214569,62.018627 341.513458,61.957352 341.725494,59.342247
	C341.920624,56.935532 344.572052,56.922897 346.412048,56.345303
	C350.372345,55.102119 354.324585,53.812645 358.339386,52.770264
	C361.560974,51.933811 363.487427,50.171005 364.363617,46.888218
	C365.519104,42.559044 366.989441,38.311581 368.401001,34.054382
	C368.867462,32.647648 369.407257,31.044220 371.267426,31.030933
	C373.135101,31.017591 373.726562,32.669106 374.169128,34.030251
	C375.297119,37.499454 376.473511,40.989235 377.144073,44.562084
	C378.084137,49.570683 380.633331,52.578487 385.776703,53.465179
	C387.877747,53.827389 389.869415,54.824162 392.300110,55.616844
z"/>
</svg>
