<?xml version="1.0" standalone="no"?><!DOCTYPE svg PUBLIC "-//W3C//DTD SVG 1.1//EN" "http://www.w3.org/Graphics/SVG/1.1/DTD/svg11.dtd"><svg t="1716192406253" class="icon" viewBox="0 0 1024 1024" version="1.1" xmlns="http://www.w3.org/2000/svg" p-id="7752" xmlns:xlink="http://www.w3.org/1999/xlink" width="200" height="200"><path d="M1000.96 576c0-58.88-12.8-112.64-35.84-166.4-23.04-51.2-56.32-97.28-97.28-135.68-71.68-69.12-168.96-112.64-273.92-122.88l56.32-61.44c15.36-15.36 15.36-38.4 2.56-48.64-12.8-10.24-33.28-7.68-48.64 7.68L506.88 153.6c-15.36 15.36-15.36 38.4-2.56 48.64l2.56 2.56 2.56 2.56 97.28 104.96c15.36 15.36 35.84 17.92 48.64 7.68 12.8-10.24 10.24-33.28-2.56-48.64l-56.32-61.44c194.56 20.48 345.6 176.64 345.6 363.52 0 202.24-174.08 366.08-391.68 366.08-215.04 0-389.12-163.84-391.68-366.08-2.56-15.36-15.36-28.16-30.72-28.16s-28.16 12.8-30.72 28.16v5.12c0 56.32 12.8 110.08 35.84 161.28 23.04 51.2 56.32 97.28 97.28 135.68 84.48 79.36 197.12 125.44 317.44 125.44 61.44 0 120.32-10.24 174.08-33.28 53.76-20.48 102.4-51.2 143.36-92.16 40.96-38.4 74.24-84.48 97.28-135.68 28.16-48.64 38.4-104.96 38.4-163.84z" fill="" p-id="7753"></path></svg>