<?xml version="1.0" standalone="no"?><!DOCTYPE svg PUBLIC "-//W3C//DTD SVG 1.1//EN" "http://www.w3.org/Graphics/SVG/1.1/DTD/svg11.dtd"><svg t="1715253997610" class="icon" viewBox="0 0 1024 1024" version="1.1" xmlns="http://www.w3.org/2000/svg" p-id="1513" xmlns:xlink="http://www.w3.org/1999/xlink" width="200" height="200"><path d="M802.133333 904.533333V563.2c0-161.28-128-307.2-290.133333-307.2s-290.133333 145.92-290.133333 307.2v341.333333H153.6c-19.9168 0-34.133333 14.336-34.133333 34.133334 0 19.797333 14.216533 34.133333 34.133333 34.133333l716.8 0.904533c19.9168 0 34.133333-17.954133 34.133333-35.037866s-11.383467-34.133333-34.133333-34.133334h-68.266667z m-512 0V580.266667c0-62.242133 19.9168-121.531733 62.583467-166.8096C392.533333 368.196267 449.416533 324.266667 512 324.266667c59.733333 0 116.616533 43.9296 159.2832 89.1904C713.949867 455.901867 733.866667 520.840533 733.866667 580.266667v324.266666H290.133333z m233.250134-276.036266l48.349866-45.2608c8.533333-8.4992 8.533333-16.981333 8.533334-28.296534 0-8.4992-2.850133-19.797333-8.533334-28.296533a36.181333 36.181333 0 0 0-51.2 0l-113.783466 104.686933c-14.216533 14.165333-14.216533 36.778667 0 48.110934 8.533333 8.482133 22.766933 14.148267 42.666666 14.148266H529.066667l-65.416534 70.724267c-8.533333 8.4992-8.533333 16.981333-8.533333 28.296533 0 8.4992 2.833067 19.797333 8.533333 28.296534 8.533333 8.482133 19.899733 8.482133 28.433067 8.482133 11.383467 0 19.9168-2.816 28.450133-8.482133l113.783467-107.52c14.216533-11.3152 19.899733-28.296533 19.899733-45.277867-2.833067-19.797333-17.066667-39.594667-45.499733-39.594667h-85.333333zM170.257067 614.4H42.666667C22.749867 614.4 0 594.602667 0 571.9552 0 549.3248 22.749867 529.066667 42.666667 529.066667h128.068266l-0.477866 85.333333z m683.5712 0h127.573333c19.9168 0 42.666667-19.797333 42.666667-42.4448 0-22.6304-22.749867-42.888533-42.666667-42.888533H853.333333l0.494934 85.333333zM217.6 354.730667l-90.2144-90.231467c-14.08-14.08-16.162133-44.168533-0.170667-60.177067 16.0256-16.008533 46.421333-14.2336 60.5184-0.170666l90.555734 90.5728-60.689067 60.0064z m251.7504-158.907734V68.232533c0-19.9168 19.797333-42.666667 42.4448-42.666666 22.6304 0 42.888533 22.749867 42.888533 42.666666v128.068267l-85.333333-0.477867z m354.1504 158.890667l90.2144-90.2144c14.08-14.08 16.1792-44.168533 0.170667-60.177067-16.008533-16.008533-46.421333-14.2336-60.501334-0.170666l-90.5728 90.5728 60.689067 60.0064z" fill="#bfbfbf" p-id="1514"></path></svg>
