<?xml version="1.0" standalone="no"?><!DOCTYPE svg PUBLIC "-//W3C//DTD SVG 1.1//EN" "http://www.w3.org/Graphics/SVG/1.1/DTD/svg11.dtd"><svg t="1715259181200" class="icon" viewBox="0 0 1024 1024" version="1.1" xmlns="http://www.w3.org/2000/svg" p-id="11876" xmlns:xlink="http://www.w3.org/1999/xlink" width="200" height="200"><path d="M180.736 248.832L0 776.448h93.696l43.52-132.608h181.76l43.008 132.608h93.696l-179.2-527.616z m-16.128 311.552l63.488-204.8 62.976 204.8zM804.096 289.792c-32-25.6-82.944-39.936-151.552-39.936h-122.368v526.592h86.016V588.8h51.2c121.088 0 185.088-58.88 185.088-169.984 1.024-58.624-15.616-102.144-48.384-129.024z m-38.656 130.56c0 34.048-10.752 79.104-102.4 79.104h-46.848v-161.28h51.2c66.816 0.256 98.048 26.368 98.048 82.176zM937.984 249.856H1024v526.592h-86.016z" fill="#bfbfbf" p-id="11877"></path></svg>
