<?xml version="1.0" standalone="no"?><!DOCTYPE svg PUBLIC "-//W3C//DTD SVG 1.1//EN" "http://www.w3.org/Graphics/SVG/1.1/DTD/svg11.dtd"><svg t="1754533111158" class="icon" viewBox="0 0 1024 1024" version="1.1" xmlns="http://www.w3.org/2000/svg" p-id="36739" xmlns:xlink="http://www.w3.org/1999/xlink" width="200" height="200"><path d="M179.8 608.7h144.8c19.7 0 35.6 16 35.6 35.6 0 19.7 16 35.6 35.6 35.6h242.6c19.7 0 35.6-16 35.6-35.6 0-19.7 16-35.6 35.6-35.6h123.6v173.6H179.8V608.7z" fill="" p-id="36740"></path><path d="M856.5 490.9c-0.1-0.3-0.1-0.6-0.2-0.8L705 226.2c-3.2-5.7-9.3-9.1-15.8-9.1H344.7c-6.4 0-12.3 3.3-15.6 8.8L169.9 489.7c-0.2 0.3-0.1 0.7-0.3 1-1.2 2.3-2 4.8-2.2 7.5 0 0.3-0.2 0.5-0.2 0.8v290.1c0 10.1 8.1 18.2 18.2 18.2 1.4 0 2.7-0.1 3.9-0.4 29.3-2.1 403.3-0.9 651 0.4 3.1-0.2 9.5-1.9 12.9-5.3 3.4-3.4 5.4-8.1 5.4-12.9V499.2c0.1-3.1-0.8-5.8-2.1-8.3zM355 253.5h323.8l130.4 227.4H626.7c-10.1 0-18.2 8.1-18.2 18.2v80.7h-191v-80.7c0-10.1-8.1-18.2-18.2-18.2H217.7L355 253.5z m467.3 517.3c-422.5-2.1-567-2.3-618.6-0.1V517.3h177.4V598c0 10.1 8.1 18.2 18.2 18.2h227.4c10.1 0 18.2-8.1 18.2-18.2v-80.7h177.4v253.5z" fill="" p-id="36741"></path><path d="M386.8 324h260.4c10.1 0 18.2-8.1 18.2-18.2s-8.1-18.2-18.2-18.2H386.8c-10.1 0-18.2 8.1-18.2 18.2s8.1 18.2 18.2 18.2zM350.4 388.8h329.8c10.1 0 18.2-8.1 18.2-18.2s-8.1-18.2-18.2-18.2H350.4c-10.1 0-18.2 8.1-18.2 18.2s8.1 18.2 18.2 18.2zM727.9 430.9c0-10.1-8.1-18.2-18.2-18.2H316.3c-10.1 0-18.2 8.1-18.2 18.2s8.1 18.2 18.2 18.2h393.5c10 0 18.1-8.1 18.1-18.2z" fill="" p-id="36742"></path></svg>
