<?xml version="1.0" standalone="no"?><!DOCTYPE svg PUBLIC "-//W3C//DTD SVG 1.1//EN" "http://www.w3.org/Graphics/SVG/1.1/DTD/svg11.dtd"><svg t="1754568961433" class="icon" viewBox="0 0 1024 1024" version="1.1" xmlns="http://www.w3.org/2000/svg" p-id="13525" xmlns:xlink="http://www.w3.org/1999/xlink" width="200" height="200"><path d="M418.909091 139.636364c18.338909 1.024 34.024727 12.753455 47.080727 35.211636a46.545455 46.545455 0 0 1 3.234909 6.795636L488.727273 232.727273h418.909091a69.818182 69.818182 0 0 1 69.818181 69.818182v535.272727a46.545455 46.545455 0 0 1-46.545454 46.545454H93.090909a46.545455 46.545455 0 0 1-46.545454-46.545454V186.181818a46.545455 46.545455 0 0 1 46.545454-46.545454h325.818182z" fill="" p-id="13526"></path><path d="M191.767273 302.545455h654.429091c30.114909 0 45.149091 16.221091 45.149091 48.64v437.992727c0 32.418909-15.034182 48.64-45.149091 48.64H191.767273c-30.114909 0-45.149091-16.221091-45.149091-48.64V351.185455c0-32.418909 15.034182-48.64 45.149091-48.64z" fill="#FFFFFF" p-id="13527"></path><path d="M72.192 418.909091h879.616a46.545455 46.545455 0 0 1 46.475636 48.872727l-18.618181 372.363637a46.545455 46.545455 0 0 1-46.475637 44.218181H90.810182a46.545455 46.545455 0 0 1-46.475637-44.218181l-18.618181-372.363637A46.545455 46.545455 0 0 1 72.192 418.909091z" fill="" p-id="13528"></path></svg>
