<?xml version="1.0" standalone="no"?><!DOCTYPE svg PUBLIC "-//W3C//DTD SVG 1.1//EN" "http://www.w3.org/Graphics/SVG/1.1/DTD/svg11.dtd"><svg t="1715256249215" class="icon" viewBox="0 0 1024 1024" version="1.1" xmlns="http://www.w3.org/2000/svg" p-id="18573" xmlns:xlink="http://www.w3.org/1999/xlink" width="200" height="200"><path d="M484.00868 1023.99845a28.004714 28.004714 0 0 1-10.404914-1.99243L22.76108 839.920035a27.672642 27.672642 0 1 1 20.809827-51.360424l440.991226 178.211815 495.561675-178.543887a27.672642 27.672642 0 1 1 18.817397 52.024567L493.417378 1022.448782a27.561952 27.561952 0 0 1-9.408698 1.549668z" fill="#bfbfbf" p-id="18574"></path><path d="M484.00868 822.541615a28.004714 28.004714 0 0 1-10.404914-1.99243L22.76108 638.4632A27.672642 27.672642 0 1 1 43.570907 586.660014l440.991226 178.211815L980.123808 586.660014a27.672642 27.672642 0 1 1 18.817397 52.024567L493.417378 820.991947a27.561952 27.561952 0 0 1-9.408698 1.549668z" fill="#bfbfbf" p-id="18575"></path><path d="M484.00868 621.084781a28.004714 28.004714 0 0 1-10.404914-1.992431L22.76108 437.006365a27.672642 27.672642 0 1 1 20.809827-51.360424l440.991226 178.211816 495.561675-178.543888a27.672642 27.672642 0 1 1 18.817397 52.024568L493.417378 619.867184a27.561952 27.561952 0 0 1-9.408698 1.217597z" fill="#bfbfbf" p-id="18576"></path><path d="M484.00868 419.627946a28.004714 28.004714 0 0 1-10.404914-1.992431L300.151645 347.568385a27.672642 27.672642 0 0 1 20.699137-51.360423l163.711351 66.414341 181.311151-65.307436a27.672642 27.672642 0 1 1 18.817397 52.024568l-191.273303 68.738843a27.561952 27.561952 0 0 1-9.408698 1.549668zM780.327332 312.811547a27.783333 27.783333 0 0 1-9.408698-53.795616L908.285629 210.31208l-150.760554-55.345284a27.672642 27.672642 0 1 1 18.928087-52.024567l222.488043 80.914805a27.672642 27.672642 0 0 1 0 52.024568l-208.873103 75.269586a27.451261 27.451261 0 0 1-9.74077 1.660359zM671.297122 121.759625a28.226095 28.226095 0 0 1-9.519389-1.660358l-172.677287-62.761552-147.661219 58.998073a27.672642 27.672642 0 0 1-20.588445-51.360424L478.25277 1.99243a27.783333 27.783333 0 0 1 19.813612 0l182.639438 66.414341a27.672642 27.672642 0 0 1-9.408698 53.352854zM204.736375 306.834256a26.897808 26.897808 0 0 1-10.404913-2.103121l-171.570382-69.181605A28.004714 28.004714 0 0 1 5.493352 210.31208a27.451261 27.451261 0 0 1 17.378419-25.569521L225.878274 102.942229a27.672642 27.672642 0 1 1 20.588446 51.360424L107.328675 210.31208l107.701923 43.501394a27.672642 27.672642 0 0 1-10.294223 53.020782z" fill="#bfbfbf" p-id="18577"></path><path d="M34.2729 842.355227a27.672642 27.672642 0 0 1-27.672643-27.672642V211.197605a27.672642 27.672642 0 0 1 55.345285 0V814.682585a27.672642 27.672642 0 0 1-27.672642 27.672642zM990.639412 842.355227a27.672642 27.672642 0 0 1-27.672642-27.672642V211.197605a27.672642 27.672642 0 0 1 55.345285 0V814.682585a27.672642 27.672642 0 0 1-27.672643 27.672642z" fill="#bfbfbf" p-id="18578"></path></svg>
