<?xml version="1.0" standalone="no"?><!DOCTYPE svg PUBLIC "-//W3C//DTD SVG 1.1//EN" "http://www.w3.org/Graphics/SVG/1.1/DTD/svg11.dtd"><svg t="1754619287290" class="icon" viewBox="0 0 1024 1024" version="1.1" xmlns="http://www.w3.org/2000/svg" p-id="6303" xmlns:xlink="http://www.w3.org/1999/xlink" width="200" height="200"><path d="M585.142857 877.714286H146.285714V585.142857h73.142857v219.428572h365.714286V658.285714a73.142857 73.142857 0 0 1 73.142857-73.142857h292.571429a73.142857 73.142857 0 0 1 73.142857 73.142857v292.571429a73.142857 73.142857 0 0 1-73.142857 73.142857H658.285714a73.142857 73.142857 0 0 1-73.142857-73.142857v-73.142857z m73.142857 0v73.142857h292.571429V658.285714H658.285714v219.428572zM438.857143 146.285714h438.857143v292.571429h-73.142857V219.428571H438.857143v146.285715a73.142857 73.142857 0 0 1-73.142857 73.142857H73.142857a73.142857 73.142857 0 0 1-73.142857-73.142857V73.142857a73.142857 73.142857 0 0 1 73.142857-73.142857h292.571429a73.142857 73.142857 0 0 1 73.142857 73.142857v73.142857zM365.714286 146.285714V73.142857H73.142857v292.571429h292.571429V146.285714z" p-id="6304"></path></svg>