<?xml version="1.0" standalone="no"?><!DOCTYPE svg PUBLIC "-//W3C//DTD SVG 1.1//EN" "http://www.w3.org/Graphics/SVG/1.1/DTD/svg11.dtd"><svg t="1754531900190" class="icon" viewBox="0 0 1024 1024" version="1.1" xmlns="http://www.w3.org/2000/svg" p-id="11103" xmlns:xlink="http://www.w3.org/1999/xlink" width="200" height="200"><path d="M769.834667 894.250667c-22.272 5.973333-35.413333 0.789333-41.642667-7.722667-59.264-81.088-243.84-514.986667-282.325333-557.290667-36.629333-40.256-92.757333-23.552-168.341334 50.133334a9.92 9.92 0 0 1-14.826666-1.066667l-73.749334-96.149333a5.312 5.312 0 0 1 0.682667-7.189334C255.488 216.277333 337.984 170.666667 432.213333 145.429333c59.946667-16.064 119.893333-22.613333 177.813334-20.672 66.474667 2.24 116.330667 22.293333 155.050666 54.656 3.477333 2.922667 7.552 12.224-2.410666 14.890667-26.56 7.125333-104 13.610667-131.84 16.490667-27.946667 2.88-75.413333 7.189333-75.989334 44.181333-0.746667 48.725333 146.624 305.472 189.397334 370.624a2493.653333 2493.653333 0 0 1 102.613333 171.946667c5.354667 9.984 9.002667 33.706667-0.64 47.253333-9.472 13.226667-44.714667 40.96-76.373333 49.450667z" fill="" p-id="11104"></path><path d="M275.968 872.362667l64.597333-64.576A85.461333 85.461333 0 0 0 448 725.333333c0-7.637333-1.002667-15.061333-2.88-22.101333l64.576-64.597333a170.666667 170.666667 0 0 1-233.728 233.728z m-60.330667-60.330667a170.666667 170.666667 0 0 1 233.728-233.728l-64.597333 64.576A85.461333 85.461333 0 0 0 277.333333 725.333333c0 7.637333 1.002667 15.061333 2.88 22.101334l-64.576 64.597333z" fill="" p-id="11105"></path></svg>
