<?xml version="1.0" standalone="no"?><!DOCTYPE svg PUBLIC "-//W3C//DTD SVG 1.1//EN" "http://www.w3.org/Graphics/SVG/1.1/DTD/svg11.dtd"><svg t="1748229117700" class="icon" viewBox="0 0 1024 1024" version="1.1" xmlns="http://www.w3.org/2000/svg" p-id="5156" xmlns:xlink="http://www.w3.org/1999/xlink" width="200" height="200"><path d="M640 170.6496c-79.104 0-138.3424 23.4496-161.3824 47.2064a42.6496 42.6496 0 0 1-61.2352-59.4944c46.08-47.4112 132.864-73.0112 222.6176-73.0112 64.1024 0 124.2624 12.8512 169.9328 35.7376 43.1616 21.5552 86.0672 59.2384 86.0672 113.5616v362.6496c0 36.6592-24.6784 62.6688-48.128 78.592-24.576 16.64-56.6784 28.8256-91.5968 36.9152a42.6496 42.6496 0 0 1-19.2512-83.1488c28.8768-6.656 50.0736-15.6672 62.976-24.3712a36.2496 36.2496 0 0 0 10.6496-9.6256v-70.656a346.3168 346.3168 0 0 1-59.136 18.2272 42.6496 42.6496 0 1 1-18.2784-83.3536c30.0544-6.6048 52.2752-15.7184 65.8944-24.6784 7.9872-5.3248 10.752-8.8576 11.52-10.24V347.8528c-16.0768 8.1408-33.6896 14.848-52.1216 20.1728a42.6496 42.6496 0 0 1-23.7056-81.92c28.0064-8.1408 48.6912-19.0464 61.4912-29.9008 12.8-10.8544 14.336-18.432 14.336-21.504 0-4.608-4.8128-20.2752-38.912-37.3248-31.488-15.7184-78.0288-26.7264-131.7376-26.7264zM252.2112 410.7264C283.7504 394.9568 330.2912 384 384 384c53.76 0 100.2496 10.9568 131.7888 26.7264 34.048 17.0496 38.912 32.6656 38.912 37.2736 0 4.608-4.864 20.224-38.912 37.2736C484.2496 500.992 437.7088 512 384 512c-53.76 0-100.2496-11.008-131.7888-26.7264-34.048-17.0496-38.912-32.7168-38.912-37.2736 0-4.608 4.864-20.224 38.912-37.2736z m302.4384 150.528v77.1072a22.528 22.528 0 0 1-3.3792 3.84c-5.632 5.2736-15.9232 11.9808-32.256 18.5344-32.4096 12.9536-80.128 21.9136-135.0144 21.9136s-102.6048-8.96-135.0144-21.9136c-16.3328-6.5536-26.624-13.2608-32.256-18.5344a22.784 22.784 0 0 1-3.3792-3.84v-77.1584l0.7168 0.3584c45.6704 22.8864 105.8304 35.7376 169.9328 35.7376 64.1024 0 124.2624-12.8512 169.9328-35.7376l0.7168-0.3584z m0 177.0496v70.7072a22.528 22.528 0 0 1-3.3792 3.84c-5.632 5.2736-15.9232 11.9808-32.256 18.5344-32.4096 12.9536-80.128 21.9136-135.0144 21.9136s-102.6048-8.96-135.0144-21.9136c-16.3328-6.5536-26.624-13.2608-32.256-18.5344a22.784 22.784 0 0 1-3.3792-3.84v-70.656l3.9424 1.5872c44.8 17.92 103.7824 28.0576 166.7072 28.0576 62.976 0 121.856-10.1376 166.7072-28.0576 1.3312-0.512 2.6624-1.024 3.9424-1.6384zM640 448c0-54.3232-42.9056-92.0064-86.0672-113.6128-45.6704-22.8352-105.8304-35.7376-169.9328-35.7376-64.1024 0-124.2624 12.9024-169.9328 35.7376C170.9056 355.9936 128 393.728 128 448v362.6496c0 27.2896 14.0288 48.9984 30.1056 64.2048 16.0256 15.1552 36.9152 26.8288 59.1872 35.7376 44.8 17.92 103.7824 28.0576 166.7072 28.0576 62.976 0 121.856-10.1376 166.7072-28.0576 22.272-8.9088 43.1616-20.5824 59.1872-35.7376 16.0768-15.2064 30.1056-36.864 30.1056-64.2048V448z" p-id="5157"></path></svg>