<?xml version="1.0" standalone="no"?><!DOCTYPE svg PUBLIC "-//W3C//DTD SVG 1.1//EN" "http://www.w3.org/Graphics/SVG/1.1/DTD/svg11.dtd"><svg t="1715272501153" class="icon" viewBox="0 0 1024 1024" version="1.1" xmlns="http://www.w3.org/2000/svg" p-id="9360" xmlns:xlink="http://www.w3.org/1999/xlink" width="200" height="200"><path d="M682.666667 597.333333c-32 0-61.866667 8.533333-87.466667 23.466667l-34.133333-34.133333c21.333333-34.133333 36.266667-74.666667 36.266666-117.333334 0-32-6.4-64-21.333333-91.733333l76.8-57.6c21.333333 12.8 44.8 21.333333 70.4 21.333333 70.4 0 128-57.6 128-128s-57.6-128-128-128-128 57.6-128 128c0 12.8 2.133333 25.6 6.4 38.4l-76.8 57.6C488.533333 277.333333 437.333333 256 384 256c-117.333333 0-213.333333 96-213.333333 213.333333s96 213.333333 213.333333 213.333334c42.666667 0 83.2-12.8 117.333333-36.266667l34.133334 34.133333c-14.933333 25.6-23.466667 55.466667-23.466667 87.466667 0 93.866667 76.8 170.666667 170.666667 170.666667s170.666667-76.8 170.666666-170.666667-76.8-170.666667-170.666666-170.666667z m42.666666-426.666666c23.466667 0 42.666667 19.2 42.666667 42.666666s-19.2 42.666667-42.666667 42.666667-42.666667-19.2-42.666666-42.666667 19.2-42.666667 42.666666-42.666666zM384 597.333333c-70.4 0-128-57.6-128-128s57.6-128 128-128 128 57.6 128 128-57.6 128-128 128z m298.666667 256c-46.933333 0-85.333333-38.4-85.333334-85.333333s38.4-85.333333 85.333334-85.333333 85.333333 38.4 85.333333 85.333333-38.4 85.333333-85.333333 85.333333z" fill="#bfbfbf" p-id="9361"></path></svg>
