<?xml version="1.0" standalone="no"?><!DOCTYPE svg PUBLIC "-//W3C//DTD SVG 1.1//EN" "http://www.w3.org/Graphics/SVG/1.1/DTD/svg11.dtd"><svg t="1754529916748" class="icon" viewBox="0 0 1024 1024" version="1.1" xmlns="http://www.w3.org/2000/svg" p-id="7305" xmlns:xlink="http://www.w3.org/1999/xlink" width="200" height="200"><path d="M560 736h64v64h-64zM688 736h64v64h-64zM816 736h64v64h-64z" fill="" p-id="7306"></path><path d="M720 512c-140.8 0-256 115.2-256 256s115.2 256 256 256 256-115.2 256-256-115.2-256-256-256z m0 448c-105.6 0-192-86.4-192-192s86.4-192 192-192 192 86.4 192 192-86.4 192-192 192zM208 128h64v64H208zM208 384h64v64H208zM208 640h64v64H208z" fill="" p-id="7307"></path><path d="M400 832v-64H124.8l-12.8-12.8v-166.4l12.8-12.8H400v-64H124.8l-12.8-12.8v-166.4l12.8-12.8h678.4l12.8 12.8V448h64V307.2l-19.2-19.2 19.2-19.2V51.2L828.8 0H99.2L48 51.2v217.6l19.2 19.2-19.2 19.2v217.6l19.2 19.2-19.2 19.2v217.6L99.2 832H400zM112 76.8l12.8-12.8h678.4l12.8 12.8v166.4l-12.8 12.8H124.8L112 243.2V76.8z" fill="" p-id="7308"></path></svg>