<?xml version="1.0" standalone="no"?><!DOCTYPE svg PUBLIC "-//W3C//DTD SVG 1.1//EN" "http://www.w3.org/Graphics/SVG/1.1/DTD/svg11.dtd"><svg t="1716464343133" class="icon" viewBox="0 0 1024 1024" version="1.1" xmlns="http://www.w3.org/2000/svg" p-id="16025" xmlns:xlink="http://www.w3.org/1999/xlink" width="200" height="200"><path d="M102.4 354.607407l17.066667 7.585186c-22.755556 53.096296-34.133333 109.985185-34.133334 168.77037 0 235.140741 191.525926 426.666667 426.666667 426.666667 151.703704 0 292.02963-81.540741 367.881481-210.488889l17.066667 9.481481C815.407407 893.155556 671.288889 976.592593 512 976.592593 265.481481 976.592593 66.37037 777.481481 66.37037 530.962963c0-60.681481 13.274074-121.362963 36.02963-176.355556z m832.474074 316.681482l-17.066667-5.688889c15.17037-43.614815 20.859259-89.125926 20.85926-134.637037C938.666667 295.822222 747.140741 104.296296 512 104.296296c-146.014815 0-278.755556 73.955556-356.503704 191.525926l-15.17037-11.377778C221.866667 161.185185 360.296296 85.333333 512 85.333333 758.518519 85.333333 957.62963 284.444444 957.62963 530.962963c0 47.407407-7.585185 94.814815-22.755556 140.325926z" p-id="16026"></path><path d="M907.491556 827.259259h-18.962963v-91.022222h18.962963z" p-id="16027"></path><path d="M907.643259 754.403556l-91.003259 1.592888-0.32237-18.962963 91.003259-1.592888zM133.025185 213.333333h18.962963v91.022223h-18.962963z" p-id="16028"></path><path d="M132.873481 286.208l91.00326-1.592889 0.32237 18.962963-91.003259 1.592889zM542.340741 790.755556c0-24.651852 17.066667-47.407407 39.822222-54.992593 11.377778-3.792593 20.859259-7.585185 32.237037-13.274074 22.755556-11.377778 49.303704-7.585185 68.266667 11.377778 3.792593 3.792593 9.481481 7.585185 15.17037 7.585185 5.688889 0 11.377778-1.896296 15.17037-7.585185l5.688889-5.688889c3.792593-3.792593 7.585185-9.481481 7.585185-15.170371 0-5.688889-1.896296-11.377778-7.585185-17.066666-17.066667-17.066667-22.755556-45.511111-9.481481-66.370371 5.688889-9.481481 9.481481-20.859259 13.274074-32.237037 7.585185-24.651852 30.340741-39.822222 54.992592-39.822222 11.377778 0 22.755556-9.481481 22.755556-22.755555v-5.688889c0-11.377778-9.481481-20.859259-20.859259-20.85926-24.651852 0-47.407407-17.066667-54.992593-39.822222-3.792593-11.377778-7.585185-20.859259-13.274074-32.237037-11.377778-22.755556-7.585185-49.303704 9.481482-68.266667 3.792593-3.792593 7.585185-9.481481 7.585185-15.17037s-1.896296-11.377778-7.585185-17.066667l-3.792593-3.792592c-9.481481-9.481481-22.755556-9.481481-32.237037 0-17.066667 17.066667-45.511111 22.755556-66.37037 11.377778-9.481481-5.688889-20.859259-9.481481-32.237037-13.274074-24.651852-7.585185-39.822222-30.340741-39.822223-54.992593 0-11.377778-9.481481-20.859259-20.859259-22.755556h-7.585185c-5.688889 0-11.377778 1.896296-15.17037 5.688889-3.792593 3.792593-5.688889 9.481481-5.688889 15.170371 0 24.651852-17.066667 47.407407-41.718519 54.992592-11.377778 3.792593-20.859259 7.585185-30.340741 11.377778-22.755556 11.377778-49.303704 7.585185-66.37037-9.481481-9.481481-9.481481-22.755556-9.481481-32.237037 0l-5.688889 5.688888c-3.792593 3.792593-7.585185 9.481481-7.585185 15.170371 0 5.688889 1.896296 11.377778 7.585185 17.066666 17.066667 17.066667 22.755556 45.511111 11.377778 66.370371-5.688889 9.481481-9.481481 20.859259-13.274074 32.237037-7.585185 24.651852-30.340741 39.822222-54.992593 39.822222-5.688889 0-11.377778 1.896296-15.17037 5.688889-3.792593 3.792593-5.688889 9.481481-5.688889 17.066667v5.688889c0 11.377778 9.481481 20.859259 20.859259 20.859259 24.651852 0 47.407407 17.066667 54.992593 39.822222 3.792593 11.377778 7.585185 20.859259 13.274074 32.237037 11.377778 22.755556 7.585185 49.303704-11.377778 68.266667-3.792593 3.792593-7.585185 9.481481-7.585185 15.17037 0 5.688889 1.896296 11.377778 7.585185 17.066667l5.688889 5.688889c3.792593 3.792593 9.481481 7.585185 15.17037 7.585185s11.377778-1.896296 15.170371-7.585185c17.066667-17.066667 45.511111-22.755556 66.37037-9.481482 9.481481 5.688889 20.859259 9.481481 32.237037 13.274074 24.651852 7.585185 39.822222 30.340741 39.822222 54.992593 0 11.377778 9.481481 22.755556 22.755556 22.755555h5.688889c9.481481-5.688889 18.962963-15.17037 18.962963-24.651851z m-26.548148 58.785185c-32.237037 0-60.681481-26.548148-60.681482-60.681482 0-9.481481-5.688889-15.17037-13.274074-18.962963-13.274074-3.792593-24.651852-9.481481-37.925926-15.17037-7.585185-3.792593-17.066667-1.896296-22.755555 3.792593-11.377778 11.377778-26.548148 18.962963-43.614815 18.962962-17.066667 0-32.237037-5.688889-43.614815-18.962962l-5.688889-5.688889c-11.377778-11.377778-18.962963-26.548148-18.962963-43.614815s5.688889-32.237037 18.962963-43.614815c5.688889-5.688889 7.585185-15.17037 3.792593-22.755556-5.688889-11.377778-11.377778-24.651852-15.170371-37.925925-1.896296-7.585185-9.481481-13.274074-18.962963-13.274075-32.237037 0-58.785185-26.548148-58.785185-58.785185v-5.688889c0-15.17037 5.688889-32.237037 17.066667-43.614814s26.548148-17.066667 41.718518-17.066667c9.481481 0 15.17037-5.688889 18.962963-13.274074 3.792593-13.274074 9.481481-26.548148 15.170371-37.925926 3.792593-7.585185 1.896296-17.066667-3.792593-22.755556-11.377778-11.377778-18.962963-26.548148-18.962963-43.614814 0-17.066667 5.688889-32.237037 18.962963-43.614815l5.688889-5.688889c24.651852-22.755556 62.577778-22.755556 85.333333 0 5.688889 5.688889 15.17037 7.585185 22.755556 3.792592 11.377778-5.688889 24.651852-9.481481 36.029629-13.274074 7.585185-1.896296 13.274074-9.481481 13.274075-18.962963 0-15.17037 5.688889-32.237037 17.066666-41.718518s26.548148-17.066667 43.614815-17.066667h7.585185c32.237037 0 58.785185 26.548148 58.785185 60.681482 0 9.481481 5.688889 15.17037 13.274074 18.962963 13.274074 3.792593 26.548148 9.481481 37.925926 15.17037 7.585185 3.792593 17.066667 1.896296 22.755556-3.792593 24.651852-22.755556 62.577778-22.755556 85.333333 0l5.688889 5.688889c11.377778 11.377778 18.962963 26.548148 18.962963 43.614815s-5.688889 32.237037-18.962963 43.614815c-3.792593 3.792593-3.792593 13.274074 0 20.859259 5.688889 11.377778 11.377778 24.651852 15.170371 37.925926 1.896296 7.585185 9.481481 13.274074 18.962962 13.274074 32.237037 0 58.785185 26.548148 58.785186 58.785185v5.688889c0 32.237037-26.548148 60.681481-60.681482 60.681482-9.481481 0-15.17037 5.688889-18.962963 13.274074-3.792593 13.274074-9.481481 26.548148-15.17037 37.925926-3.792593 7.585185-1.896296 17.066667 3.792592 22.755555 11.377778 11.377778 18.962963 26.548148 18.962963 43.614815s-5.688889 32.237037-18.962963 43.614815l-5.688888 5.688889c-11.377778 11.377778-26.548148 18.962963-43.614815 18.962963-17.066667 0-32.237037-5.688889-43.614815-18.962963-5.688889-5.688889-15.17037-7.585185-22.755556-3.792593-11.377778 5.688889-24.651852 11.377778-37.925926 15.170371-7.585185 1.896296-13.274074 9.481481-13.274074 18.962963-1.896296 32.237037-26.548148 56.888889-58.785185 58.785185h-3.792592z" p-id="16029"></path><path d="M610.607407 530.962963c0-51.2-41.718519-92.918519-92.918518-92.918519s-92.918519 41.718519-92.918519 92.918519 41.718519 92.918519 92.918519 92.918518 92.918519-41.718519 92.918518-92.918518z m-204.8 0c0-62.577778 49.303704-111.881481 111.881482-111.881482s111.881481 49.303704 111.881481 111.881482c0 62.577778-49.303704 111.881481-111.881481 111.881481-60.681481 0-111.881481-49.303704-111.881482-111.881481z" p-id="16030"></path></svg>