<?xml version="1.0" standalone="no"?><!DOCTYPE svg PUBLIC "-//W3C//DTD SVG 1.1//EN" "http://www.w3.org/Graphics/SVG/1.1/DTD/svg11.dtd"><svg t="1715408100974" class="icon" viewBox="0 0 1024 1024" version="1.1" xmlns="http://www.w3.org/2000/svg" p-id="4371" xmlns:xlink="http://www.w3.org/1999/xlink" width="200" height="200"><path d="M704 490.666667h132.266667c53.333333 0 96-46.933333 96-106.666667s-42.666667-106.666667-96-106.666667H213.333333v42.666667c0 12.8-8.533333 21.333333-21.333333 21.333333H64c-12.8 0-21.333333-8.533333-21.333333-21.333333V192c0-12.8 8.533333-21.333333 21.333333-21.333333h128c12.8 0 21.333333 8.533333 21.333333 21.333333v42.666667h622.933334c76.8 0 138.666667 68.266667 138.666666 149.333333s-61.866667 149.333333-138.666666 149.333333H704v85.333334l-106.666667-106.666667 106.666667-106.666667v85.333334z m0 298.666666H181.333333C104.533333 789.333333 42.666667 721.066667 42.666667 640s61.866667-149.333333 138.666666-149.333333H426.666667v-42.666667c0-12.8 8.533333-21.333333 21.333333-21.333333h128c12.8 0 21.333333 8.533333 21.333333 21.333333v128c0 12.8-8.533333 21.333333-21.333333 21.333333h-128c-12.8 0-21.333333-8.533333-21.333333-21.333333v-42.666667H181.333333C128 533.333333 85.333333 580.266667 85.333333 640s42.666667 106.666667 96 106.666667H704v-85.333334l106.666667 106.666667-106.666667 106.666667v-85.333334z m128-106.666666h128c12.8 0 21.333333 8.533333 21.333333 21.333333v128c0 12.8-8.533333 21.333333-21.333333 21.333333h-128c-12.8 0-21.333333-8.533333-21.333333-21.333333v-128c0-12.8 8.533333-21.333333 21.333333-21.333333z" fill="" p-id="4372"></path></svg>
