<?xml version="1.0" standalone="no"?><!DOCTYPE svg PUBLIC "-//W3C//DTD SVG 1.1//EN" "http://www.w3.org/Graphics/SVG/1.1/DTD/svg11.dtd"><svg t="1715948415283" class="icon" viewBox="0 0 1024 1024" version="1.1" xmlns="http://www.w3.org/2000/svg" p-id="9751" xmlns:xlink="http://www.w3.org/1999/xlink" width="200" height="200"><path d="M458.6 510.1c140.6 0 255-114.4 255-255S599.2 0 458.6 0s-255 114.4-255 255 114.4 255.1 255 255.1z m0-450.6c107.8 0 195.5 87.7 195.5 195.5s-87.7 195.5-195.5 195.5S263.1 362.8 263.1 255 350.8 59.5 458.6 59.5zM781.1 951.5H122.4c-18.2 0-36.7-16.7-49.3-44.8-18.6-41.1-17.8-90.7 1.8-113 78.7-89.6 185.6-148.1 301.5-167.1L360 831.8c-1 10.7 2.9 21.1 10.5 28.5l63.6 62.1c6.9 6.8 15.8 10.1 24.7 10.1 8.9 0 17.8-3.4 24.7-10.1l63.6-62.1c7.5-7.4 11.4-17.7 10.5-28.1L541 626.7c23.7 3.8 47.1 9.2 70 16.3 15.7 4.9 32.4-3.8 37.3-19.5 4.9-15.7-3.9-32.4-19.5-37.3-30.2-9.4-61.2-16-92.6-20.3l-0.6-7.9c-1.6-18.3-16.8-32.2-35.2-32.2H417c-18.4 0-33.5 13.8-35.2 32.5l-0.6 7.6c-135 18.5-260 84.8-351.1 188.5-41.4 47.1-34.9 124.7-11.3 176.8 22.6 50 61.3 79.8 103.6 79.8h658.7c16.4 0 29.8-13.3 29.8-29.8-0.1-16.4-13.4-29.7-29.8-29.7zM497.2 825.6l-38.5 37.7-38.5-37.7 16.4-205.1c7.4-0.3 14.7-0.6 22.1-0.6 7.4 0 14.8 0.5 22.2 0.8l16.3 204.9z" fill="" p-id="9752"></path><path d="M1023.5 728.9l-19.2-18-8.4 0.2c-3-9.5-6.8-18.7-11.4-27.5l6.5-6.3 0.3-12.9-0.2-13.9-45.8-45.2-26.6 0.9-5.6 6c-8.8-4.6-18-8.4-27.5-11.4v-9.3L867 572.9h-50.6l-14 0.5-18.1 19.8 0.4 7.8c-9.4 3-18.6 6.8-27.4 11.4l-6.6-6.6-12.6-0.2-13.8 0.3-35.8 35.8-9.5 10.2 1.2 26.8 5.8 5.2c-4.6 8.8-8.4 18-11.3 27.4l-9.5 0.1-18.6 18.6v50.5l0.5 14.1 19.9 18 7.7-0.4c3 9.4 6.8 18.6 11.4 27.4l-6.6 6.6-0.2 12.6 0.2 13.8 35.8 35.8 10.2 9.5 26.8-1.1 5.3-5.9c8.8 4.6 17.9 8.3 27.3 11.3l-0.1 9 18.8 19h50.8l13.8-0.5 18-19.4-0.3-8.2c9.5-3 18.6-6.8 27.4-11.4l6.2 6.4 12.8 0.3 14-0.1 35.9-35.9 9.4-10.1-1-26.5-6-5.5c4.6-8.8 8.4-18 11.3-27.4l8.7 0.2 19.3-18.8v-50.9l-0.4-13.5zM943.1 777c-2.5 18-9.6 35.2-20.5 49.7l-9.4 12.5-12.5 9.4c-14.5 10.9-31.7 18.1-49.7 20.7l-15.5 2.2-15.5-2.2c-18.1-2.6-35.4-9.7-50-20.7l-12.5-9.4-9.4-12.5c-10.9-14.5-18-31.7-20.5-49.7l-2.2-15.4 2.2-15.6c2.6-18 9.7-35.1 20.7-49.7l9.4-12.5 12.6-9.4c14.6-10.9 31.8-18 49.8-20.5l15.5-2.2 15.5 2.2c17.9 2.6 35 9.7 49.5 20.5l12.5 9.4 9.4 12.5c10.9 14.5 18.1 31.7 20.7 49.7l2.2 15.5-2.3 15.5z" fill="" p-id="9753"></path></svg>
