<?xml version="1.0" standalone="no"?><!DOCTYPE svg PUBLIC "-//W3C//DTD SVG 1.1//EN" "http://www.w3.org/Graphics/SVG/1.1/DTD/svg11.dtd"><svg t="1715272285108" class="icon" viewBox="0 0 1024 1024" version="1.1" xmlns="http://www.w3.org/2000/svg" p-id="5652" xmlns:xlink="http://www.w3.org/1999/xlink" width="200" height="200"><path d="M861.27 349.69H715.92a99.09 99.09 0 1 1 0-198.17h145.35a99.09 99.09 0 0 1 0 198.17z m-145.35-153a53.91 53.91 0 1 0 0 107.81h145.35a53.91 53.91 0 0 0 0-107.81zM861.27 611.81H715.92a99.09 99.09 0 1 1 0-198.18h145.35a99.09 99.09 0 0 1 0 198.18z m-145.35-153a53.91 53.91 0 1 0 0 107.81h145.35a53.91 53.91 0 0 0 0-107.81zM164.17 684.48a99.2 99.2 0 0 1-99.09-99.09V440.05a99.09 99.09 0 1 1 198.17 0v145.34a99.2 99.2 0 0 1-99.08 99.09z m0-298.34a54 54 0 0 0-53.91 53.91v145.34a53.91 53.91 0 1 0 107.81 0V440.05a54 54 0 0 0-53.9-53.91zM861.27 873.93H715.92a99.09 99.09 0 1 1 0-198.18h145.35a99.09 99.09 0 0 1 0 198.18z m-145.35-153a53.91 53.91 0 1 0 0 107.82h145.35a53.91 53.91 0 0 0 0-107.82zM532.75 797.43h-86.06a22.59 22.59 0 0 1-22.59-22.59V250.6a22.59 22.59 0 0 1 22.59-22.6h86.06a22.59 22.59 0 1 1 0 45.18h-63.47v479.07h63.47a22.59 22.59 0 1 1 0 45.18z" fill="" p-id="5653"></path><path d="M532.75 535.31H331.94a22.59 22.59 0 1 1 0-45.18h200.81a22.59 22.59 0 1 1 0 45.18z" fill="" p-id="5654"></path></svg>
