<?xml version="1.0" standalone="no"?><!DOCTYPE svg PUBLIC "-//W3C//DTD SVG 1.1//EN" "http://www.w3.org/Graphics/SVG/1.1/DTD/svg11.dtd"><svg t="1715408065867" class="icon" viewBox="0 0 1024 1024" version="1.1" xmlns="http://www.w3.org/2000/svg" p-id="2429" xmlns:xlink="http://www.w3.org/1999/xlink" width="200" height="200"><path d="M911.36 802.304c-31.744 0-59.392 15.872-77.312 38.912l-79.872-68.608c36.352-47.616 59.392-109.568 59.392-175.616 0-157.184-125.44-285.184-280.576-289.28V221.184c47.616-4.608 86.528-45.568 86.528-95.744 0-52.224-43.52-95.744-95.744-95.744s-95.744 43.52-95.744 95.744c0 50.176 38.912 91.136 86.528 95.744v86.528c-155.136 6.656-280.576 132.096-280.576 289.28 0 66.048 23.04 127.488 59.392 175.616l-79.872 66.048c-18.432-23.04-45.568-38.912-77.312-38.912C83.968 800.256 40.96 843.264 40.96 896s43.52 95.744 95.744 95.744 95.744-43.52 95.744-95.744c0-13.824-2.048-27.136-9.216-40.96l81.92-68.608c52.224 59.392 130.048 97.792 216.576 97.792s164.352-38.912 216.576-97.792l81.92 68.608c-4.608 11.264-9.216 25.088-9.216 40.96 0 52.224 43.52 95.744 95.744 95.744s95.744-43.52 95.744-95.744c7.168-50.176-36.352-93.696-91.136-93.696z m-385.024-22.528c-86.528 0-161.792-64-175.616-147.968H298.496L371.2 542.72l43.52 50.176 36.352 40.96H391.68c15.872 61.44 70.656 107.008 134.656 107.008 77.312 0 139.264-64 139.264-141.312s-61.44-141.312-139.264-141.312c-45.568 0-84.48 20.48-109.568 54.784 0 0-15.872-2.048-20.48-6.656-6.656-9.216-6.656-23.04-6.656-25.088 31.744-40.96 81.92-66.048 139.264-66.048 100.352 0 180.224 81.92 180.224 182.272-2.56 99.84-82.432 182.272-182.784 182.272z" p-id="2430"></path></svg>