<?xml version="1.0" standalone="no"?><!DOCTYPE svg PUBLIC "-//W3C//DTD SVG 1.1//EN" "http://www.w3.org/Graphics/SVG/1.1/DTD/svg11.dtd"><svg t="1744091522193" class="icon" viewBox="0 0 1160 1024" version="1.1" xmlns="http://www.w3.org/2000/svg" p-id="10060" xmlns:xlink="http://www.w3.org/1999/xlink" width="226.5625" height="200"><path d="M963.106133 612.5568c16.315733-24.576 32.1536-48.878933 47.035734-72.0896h149.572266v72.0896h-196.608z m-6.144-72.0896h-177.493333L660.6848 164.6592 542.173867 540.4672h-7.7824l-83.626667-264.874667-83.626667 264.874667h-177.493333A3823.479467 3823.479467 0 0 1 143.36 466.397867a292.181333 292.181333 0 0 1-60.142933-178.176C83.217067 129.024 208.622933 0 363.246933 0a275.797333 275.797333 0 0 1 210.056534 98.030933A275.797333 275.797333 0 0 1 783.291733 0c154.692267 0 280.029867 129.024 280.029867 288.290133a292.181333 292.181333 0 0 1-60.142933 178.176c-13.7216 22.528-29.354667 47.581867-46.2848 74.001067zM183.432533 612.5568H0V540.4672h136.3968c14.882133 23.210667 30.72 47.445333 47.104 72.0896z m234.496 0l32.768-103.765333 87.517867 277.230933 122.4704-388.164267 67.7888 214.698667h181.384533c-121.787733 183.432533-336.6912 396.356267-336.6912 396.356267s-214.8352-212.992-336.554666-396.356267h181.316266z" fill="#bfbfbf" p-id="10061"></path></svg>
