<?xml version="1.0" standalone="no"?><!DOCTYPE svg PUBLIC "-//W3C//DTD SVG 1.1//EN" "http://www.w3.org/Graphics/SVG/1.1/DTD/svg11.dtd"><svg t="1752911481403" class="icon" viewBox="0 0 1024 1024" version="1.1" xmlns="http://www.w3.org/2000/svg" p-id="7124" xmlns:xlink="http://www.w3.org/1999/xlink" width="200" height="200"><path d="M225 751V607.2h-64V751c0 61.8 50.2 112 112 112h143.8v-64H273c-26.5 0-48-21.5-48-48zM799 273v143.8h64V273c0-61.8-50.2-112-112-112H607.2v64H751c26.5 0 48 21.5 48 48zM527.5 182.3H356.9V98.2h-61.2v84.1H128v218.2h167.7v151.6h61.2V400.5h170.6V182.3zM295.7 343.7H186.3V239.2h109.4v104.5z m171.1 0H356.9V239.2h109.8v104.5zM731.7 494.1h-65.3L512.2 895.6h70.5l42.5-117.1h151.2l45.1 117.1h74.6L731.7 494.1z m-86.2 227.8l38.7-103.3c5.8-15.7 10.7-31.6 14.9-47.6 5.2 15.8 11.7 33.9 19.3 54l36.5 96.9H645.5z" p-id="7125"></path></svg>