<?xml version="1.0" standalone="no"?><!DOCTYPE svg PUBLIC "-//W3C//DTD SVG 1.1//EN" "http://www.w3.org/Graphics/SVG/1.1/DTD/svg11.dtd"><svg t="1715409956345" class="icon" viewBox="0 0 1024 1024" version="1.1" xmlns="http://www.w3.org/2000/svg" p-id="7674" xmlns:xlink="http://www.w3.org/1999/xlink" width="200" height="200"><path d="M307.99303363 747.67639633c-138.4866598-40.25774994-235.10525967-173.37670975-235.10525968-323.13553954 0-185.18564974 144.39112979-335.48124952 322.06199956-335.48124952 85.88319988 0 166.93546977 34.89004995 227.59047967 97.69213985 10.73539998 10.73539998 27.91203995 11.27216999 38.64743995 0.53676999s11.27216999-27.91203995 0.53676999-38.64743993c-34.35327995-35.96358995-74.61102989-63.87562991-119.69970982-83.73611989C495.86253335 45.04446733 445.94292343 34.30906734 394.94977351 34.30906734s-100.37598985 10.73539998-147.0749798 31.13265995c-45.08867994 19.86048997-85.34642989 47.77252993-119.69970983 83.73611989-34.35327995 35.96358995-61.72854991 77.83164989-80.51549988 123.99386981C28.33586402 320.94424693 18.13723404 371.93739686 18.13723404 424.54085679c0 43.47836993 6.97800999 86.41996987 20.39725997 127.21448982 13.41924998 39.72097995 32.20619995 76.75810989 56.89761992 110.03784984 24.69141997 33.27973996 53.67699992 61.72854991 86.95673987 85.34642988 33.81650995 24.15464997 70.85363989 41.86805994 110.03784985 53.14022993 2.68385 0.53676999 5.36769999 1.07354 7.51477999 1.07354 11.80893999 0 22.54433996-7.51477999 26.30172996-19.86048999 4.83092999-14.49278997-3.75739-29.52234996-18.25017997-33.81650994z" fill="#bfbfbf" p-id="7675"></path><path d="M425.54566346 249.01706704c0-15.02955998-12.34570998-27.37526996-27.37526996-27.37526997s-27.37526996 12.34570998-27.37526997 27.37526997v150.29559977c0 4.83092999-2.14708001 9.66185998-4.83092998 12.88247999l-96.08182987 99.30244986c-10.73539998 10.73539998-10.19862998 27.91203995 0.53677 38.64743994 5.36769999 5.36769999 11.80893999 7.51477999 18.78694997 7.51478 6.97800999 0 14.49278997-2.68385 19.86048998-8.58831998l96.08182986-99.30244987c12.88247998-13.41924998 20.39725998-31.66942995 20.39725997-50.99314993V249.01706704z m486.85038931 424.5850694c-29.52234996-30.59588996-63.87562991-54.21376993-101.44952985-69.2433299 48.84606993-35.96358995 81.05226989-95.00828987 81.05226987-161.56776978 0-109.50107984-86.41996987-198.06812972-192.16365972-198.06812971s-192.16365973 89.10381988-192.16365972 198.6048997c0 66.5594799 32.20619995 125.60417983 81.05226988 161.56776979-34.89004995 14.49278997-67.63301991 35.96358995-95.54505987 63.8756299-55.82407992 55.28730993-89.10381988 118.08939983-93.39797986 197.53135973v2.68385c-1.07354 26.30172996 8.58831999 52.06668993 26.83849996 70.85363989 17.71340998 18.78694997 47.23575993 28.98557996 72.4639499 28.98557996h418.1438294c46.16221993 0 83.73611987-38.11066995 83.73611989-84.80965989v-1.61030999c-0.53676999-82.66257989-31.66942995-149.75882979-88.56704988-208.8035297z m-346.21664951-230.81109968c0-76.75810989 60.11823991-139.5601998 133.11895981-139.5601998s133.11895981 62.8020899 133.11895981 139.5601998-60.11823991 139.5601998-133.11895981 139.5601998-133.11895981-62.8020899-133.11895981-139.5601998z m375.20222947 440.15139938c0 14.49278997-11.27216999 26.30172996-25.22818996 26.30172997H498.54638336c-9.12508999 0-23.08110997-3.75739-30.05911996-10.7354-6.97800999-7.51477999-10.73539998-17.17663997-10.19862999-27.91203995v-2.14708001c6.97800999-133.65572981 113.25846984-227.59047967 241.54649966-227.59047967 64.41239992 0 125.06740982 26.30172996 170.69285976 73.5374899 45.62544994 47.77252993 70.85363989 100.37598985 70.8536399 168.54577976z" fill="#bfbfbf" p-id="7676"></path></svg>
