<?xml version="1.0" standalone="no"?><!DOCTYPE svg PUBLIC "-//W3C//DTD SVG 1.1//EN" "http://www.w3.org/Graphics/SVG/1.1/DTD/svg11.dtd"><svg t="1751784922463" class="icon" viewBox="0 0 1031 1024" version="1.1" xmlns="http://www.w3.org/2000/svg" p-id="7438" xmlns:xlink="http://www.w3.org/1999/xlink" width="201.3671875" height="200"><path d="M446.976 32.256c-125.44-1.536-235.52 105.472-237.568 238.08-1.024 74.752 31.744 142.848 89.088 190.976l16.896 10.24-17.408 6.656c-156.672 58.88-264.192 207.36-266.24 376.832v2.56c0 62.976 51.2 114.176 114.176 114.176l308.736 3.584c10.24 0 27.136-3.584 27.648-24.064 0.512-24.064-16.896-26.624-26.624-26.624l-308.736-4.096c-29.696 0-63.488-33.792-63.488-63.488v-2.048c2.048-179.712 147.968-334.848 320.512-342.016l47.616 0.512c40.448-2.56 98.304-12.288 129.536-38.912l13.312-10.24c58.368-46.592 93.184-114.176 94.208-188.928 1.536-131.584-105.984-241.664-241.664-243.2z m1.536 430.08c-103.424-1.024-188.416-88.064-186.88-192 1.024-103.424 88.064-187.904 192-186.88s188.416 88.064 186.88 192c-2.048 103.936-88.576 188.416-192 186.88z" p-id="7439"></path><path d="M989.184 705.536c-3.072-16.896-16.384-30.72-30.208-30.72h-3.584c-29.696 0-53.248-24.064-53.248-53.248v-1.536c0-6.656 3.584-16.896 3.584-19.968 7.168-16.896 0.512-37.376-12.8-47.616l-60.416-34.816h-16.896c-10.24 0-23.552 3.072-30.72 13.312-6.656 6.656-27.136 23.552-40.96 23.04s-33.792-17.408-43.52-24.064c-6.656-6.656-16.896-13.824-30.208-13.824-6.656 0-10.24 0-13.312 3.072l-64.512 32.768c-13.824 9.728-20.48 30.208-14.336 47.104 2.048 6.144 3.072 13.312 3.072 20.992v-0.512c0 29.696-24.064 53.248-53.248 53.248H523.264c-13.312 0-27.136 13.312-30.72 30.208 0 3.584-7.168 27.136-7.168 50.688-0.512 20.48 2.56 47.104 6.144 50.688 3.072 16.896 16.384 30.72 30.208 30.72h3.584c29.696 0 53.248 24.064 53.248 53.248v1.536c0 6.656-3.584 16.896-3.584 19.968-7.168 16.896-0.512 37.376 12.8 47.616l60.416 34.816c6.656-3.072 10.24-3.072 16.896-3.072 10.24 0 23.552-3.072 30.72-13.312 6.656-6.656 27.136-26.624 44.032-26.624 13.312 0 36.864 17.408 43.52 27.648 6.656 6.656 16.896 13.824 30.208 13.824 6.656 0 10.24 0 16.896-3.072l61.44-32.768c13.824-9.728 20.48-30.208 14.336-47.104-2.048-6.144-3.072-13.312-3.072-20.992v0.512c0-29.696 24.064-53.248 53.248-53.248H961.024c13.312 0 27.136-13.312 30.72-30.208 0 0 7.168-27.136 7.168-50.688-7.168-16.896-10.24-44.032-9.728-47.616z m-48.64 83.968c-50.688 6.144-88.576 46.08-89.088 100.352 0 10.24 3.072 23.552 6.144 30.72l-44.032 23.04-16.896-16.896c-19.968-13.824-36.864-20.992-57.344-20.992-16.896 0-37.376 6.144-57.856 19.456-6.656 6.656-13.824 9.728-16.896 16.896l-39.936-24.064c3.584-6.656 7.168-19.968 7.168-30.208 0.512-50.688-35.84-95.232-86.528-102.4 0-6.656-3.072-20.48-3.072-33.792 0-10.24 3.584-23.552 3.584-33.792 50.688-6.144 88.576-46.08 89.088-100.352 0-10.24-3.072-23.552-6.144-30.72l44.032-23.04c3.584 3.584 10.24 10.24 16.896 13.824 19.968 13.824 36.864 20.992 53.76 20.992s33.792-6.144 54.272-19.456c6.656-6.656 13.824-9.728 16.896-13.312l43.52 24.064c-3.584 6.656-7.168 19.968-7.168 30.208-0.512 50.688 35.84 95.232 86.528 102.4 0 6.656 3.072 20.48 3.072 33.792 3.584 9.728 0 23.04 0 33.28z" p-id="7440"></path><path d="M833.024 740.864c-6.144-40.448-36.352-71.168-73.216-78.848-64-14.336-122.368 42.496-109.568 110.08 6.144 37.376 36.352 68.096 73.216 75.264 64 14.848 122.368-41.984 109.568-106.496z m-92.16 56.32c-23.552-0.512-43.52-20.992-43.52-44.544 0.512-23.552 20.992-43.52 44.544-43.52 23.552 0.512 43.52 20.992 43.52 44.544 0 24.064-20.48 44.032-44.544 43.52z" p-id="7441"></path></svg>