<?xml version="1.0" standalone="no"?><!DOCTYPE svg PUBLIC "-//W3C//DTD SVG 1.1//EN" "http://www.w3.org/Graphics/SVG/1.1/DTD/svg11.dtd"><svg t="1715410482033" class="icon" viewBox="0 0 1026 1024" version="1.1" xmlns="http://www.w3.org/2000/svg" p-id="12884" xmlns:xlink="http://www.w3.org/1999/xlink" width="200.390625" height="200"><path d="M1020.44444 755.2c0-6.4-6.4-19.2-6.4-25.6-19.2-32-57.6-64-102.4-83.2-12.8-6.4-19.2-6.4-25.6-6.4-44.8-25.6-64-51.2-64-96l44.8-83.2c0-6.4 6.4-12.8 6.4-19.2 12.8-25.6 19.2-51.2 25.6-83.2v-12.8c6.4-44.8 0-83.2-12.8-115.2V224l-6.4-6.4c-6.4-12.8-12.8-12.8-19.2-25.6-12.8-19.2-32-38.4-51.2-44.8l-6.4-6.4c-6.4-6.4-25.6-12.8-38.4-12.8h-12.8c0-6.4 0-6.4-6.4 0-12.8 0-19.2 6.4-38.4 6.4-25.6 6.4-51.2 25.6-64 51.2-6.4 12.8-6.4 19.2-12.8 25.6 0 0-6.4 6.4-6.4 12.8 19.2 6.4 38.4 25.6 51.2 44.8l19.2 38.4 6.4 6.4c6.4 32 12.8 64 6.4 108.8-6.4 32-12.8 64-25.6 96 0 0 0 6.4-6.4 12.8l6.4 12.8c0 38.4-19.2 64-51.2 89.6 6.4 38.4 32 64 83.2 89.6 38.4 12.8 64 32 89.6 64l6.4 6.4h217.6c0-12.8-6.4-25.6-6.4-38.4z m-256 64c-19.2-32-51.2-57.6-89.6-76.8-19.2-12.8-38.4-19.2-51.2-25.6-19.2-19.2-32-38.4-38.4-57.6V640l44.8-83.2c0-6.4 6.4-12.8 6.4-12.8 0-6.4 0-6.4 6.4-6.4 0-12.8 6.4-25.6 12.8-44.8V480c6.4-6.4 6.4-25.6 6.4-38.4 6.4-38.4 0-70.4-6.4-102.4-6.4-6.4-6.4-12.8-6.4-12.8l-19.2-38.4c0-6.4-6.4-12.8-6.4-12.8-12.8-12.8-25.6-25.6-44.8-32-12.8-12.8-32-19.2-51.2-19.2-6.4-6.4-6.4-6.4-6.4 0h-6.4c-6.4-6.4-6.4-6.4-6.4 0h-6.4c-19.2 6.4-32 12.8-44.8 19.2-19.2 12.8-32 25.6-44.8 44.8-12.8 12.8-12.8 25.6-19.2 32-6.4 19.2-12.8 32-19.2 51.2-6.4 25.6-6.4 44.8 0 70.4 6.4 19.2 6.4 38.4 12.8 51.2v6.4c6.4 12.8 12.8 32 12.8 38.4 0 6.4 6.4 6.4 6.4 6.4l6.4 6.4 44.8 76.8v25.6c-6.4 38.4-38.4 64-89.6 83.2-6.4 6.4-6.4 6.4-12.8 6.4-38.4 12.8-64 38.4-76.8 64-12.8 25.6-19.2 32-19.2 44.8-6.4 6.4-6.4 25.6-6.4 38.4v6.4h537.6v-12.8c0-6.4 0-25.6-6.4-32-6.4-12.8-12.8-19.2-19.2-32z m-441.6-96c51.2-25.6 76.8-51.2 89.6-89.6-38.4-25.6-57.6-51.2-64-89.6l12.8-12.8c-6.4-6.4-6.4-12.8-6.4-12.8-12.8-25.6-19.2-64-25.6-96v-64c0-19.2 6.4-38.4 12.8-57.6 6.4-6.4 12.8-25.6 19.2-32 12.8-19.2 32-38.4 51.2-44.8 0-12.8-6.4-19.2-12.8-32v-6.4c-32-32-64-57.6-102.4-57.6h-25.6c-44.8 0-70.4 25.6-102.4 64 0 6.4-6.4 6.4-6.4 12.8-6.4 6.4-12.8 19.2-19.2 25.6-6.4 25.6-12.8 51.2-12.8 83.2v32c6.4 12.8 6.4 25.6 6.4 32 6.4 25.6 12.8 44.8 19.2 64 6.4 6.4 12.8 12.8 12.8 19.2l44.8 83.2c0 12.8-6.4 25.6-6.4 44.8-6.4 12.8-19.2 25.6-38.4 38.4-12.8 6.4-25.6 12.8-44.8 19.2-51.2 19.2-83.2 44.8-102.4 83.2-6.4 6.4-12.8 19.2-12.8 25.6-6.4 0-6.4 6.4-6.4 12.8s-6.4 19.2 0 25.6h217.6c19.2-25.6 44.8-44.8 83.2-64 6.4 0 6.4-6.4 19.2-6.4z" fill="#bfbfbf" p-id="12885"></path></svg>
