<?xml version="1.0" standalone="no"?><!DOCTYPE svg PUBLIC "-//W3C//DTD SVG 1.1//EN" "http://www.w3.org/Graphics/SVG/1.1/DTD/svg11.dtd"><svg t="1731978143311" class="icon" viewBox="0 0 1024 1024" version="1.1" xmlns="http://www.w3.org/2000/svg" p-id="3541" xmlns:xlink="http://www.w3.org/1999/xlink" width="200" height="200"><path d="M772.9 939.7c-4.2 0-8.4-1-12.2-3L512 806 263.3 936.7c-8.8 4.6-19.5 3.9-27.6-2-8.1-5.9-12.1-15.8-10.4-25.7l47.5-276.9L71.6 436c-7.2-7-9.7-17.4-6.6-26.9 3.1-9.5 11.3-16.4 21.2-17.9l278-40.4L488.4 98.9c4.4-9 13.5-14.6 23.5-14.6S531 90 535.4 98.9l124.3 251.9 278 40.4c9.9 1.4 18.1 8.4 21.2 17.9 3.1 9.5 0.5 19.9-6.6 26.9l-201 196.1L798.7 909c1.7 9.8-2.4 19.8-10.4 25.7-4.6 3.3-10 5-15.4 5zM512 750c4.2 0 8.4 1 12.2 3L738 865.5l-40.8-238.1c-1.4-8.5 1.4-17.2 7.5-23.2l173-168.6-239-34.7c-8.6-1.2-15.9-6.6-19.8-14.4L512 169.9 405.1 386.5c-3.8 7.7-11.2 13.1-19.8 14.4l-239 34.7 173 168.6c6.2 6 9 14.7 7.5 23.2L286 865.5l213.8-112.4c3.8-2.1 8-3.1 12.2-3.1z" fill="#666666" p-id="3542"></path></svg>