<?xml version="1.0" standalone="no"?><!DOCTYPE svg PUBLIC "-//W3C//DTD SVG 1.1//EN" "http://www.w3.org/Graphics/SVG/1.1/DTD/svg11.dtd"><svg t="1755012187437" class="icon" viewBox="0 0 1024 1024" version="1.1" xmlns="http://www.w3.org/2000/svg" p-id="6259" xmlns:xlink="http://www.w3.org/1999/xlink" width="200" height="200"><path d="M512 128c-35.2256 0-64 28.8256-64 64C448 227.2256 476.8256 256 512 256c35.2256 0 64-28.8256 64-64 0-35.2256-28.8256-64-64-64zM512 768c-35.2256 0-64 28.8256-64 64 0 35.2256 28.8256 64 64 64 35.2256 0 64-28.8256 64-64 0-35.2256-28.8256-64-64-64z m0-320c-35.2256 0-64 28.8256-64 64 0 35.2256 28.8256 64 64 64 35.2256 0 64-28.8256 64-64 0-35.2256-28.8256-64-64-64z" fill="" p-id="6260"></path></svg>
