<?xml version="1.0" standalone="no"?><!DOCTYPE svg PUBLIC "-//W3C//DTD SVG 1.1//EN" "http://www.w3.org/Graphics/SVG/1.1/DTD/svg11.dtd"><svg t="1715258059702" class="icon" viewBox="0 0 1152 1024" version="1.1" xmlns="http://www.w3.org/2000/svg" p-id="16692" xmlns:xlink="http://www.w3.org/1999/xlink" width="225" height="200"><path d="M575.185506 631.628823A265.05154 265.05154 0 1 1 840.118719 366.813937a265.288193 265.288193 0 0 1-264.933213 264.814886z m0-470.821462A205.88825 205.88825 0 1 0 780.955429 366.813937a206.006576 206.006576 0 0 0-205.769923-206.006576z" p-id="16693"></path><path d="M1006.840871 1023.999763a29.463318 29.463318 0 0 1-29.581645-29.581645c0-200.090247-180.448035-362.789295-402.310373-362.789295s-402.310373 162.699048-402.310372 362.789295a29.581645 29.581645 0 0 1-59.163291 0c0-232.748383 206.834862-421.952585 461.473663-421.952585s461.473663 189.322528 461.473663 421.952585a29.581645 29.581645 0 0 1-29.581645 29.581645zM278.659096 404.205136a30.291605 30.291605 0 0 1-14.080863-3.549797A212.987844 212.987844 0 0 1 366.102439 0.001538a210.976293 210.976293 0 0 1 127.67438 42.479243 29.581645 29.581645 0 1 1-35.497974 47.330632 153.824554 153.824554 0 1 0-165.657212 258.780231 29.581645 29.581645 0 0 1-14.080863 55.613492z" p-id="16694"></path><path d="M29.581645 708.659427a29.581645 29.581645 0 0 1-29.581645-29.581645c0-148.736511 108.860454-281.380608 264.578233-322.558258A29.581645 29.581645 0 0 1 279.724036 414.144569C149.919777 447.985971 59.16329 557.083078 59.16329 679.077782a29.581645 29.581645 0 0 1-29.581645 29.581645zM873.013509 404.205136a29.581645 29.581645 0 0 1-14.19919-55.613492 153.824554 153.824554 0 1 0-165.657212-258.780231 29.581645 29.581645 0 0 1-35.497974-47.330632A212.987844 212.987844 0 1 1 887.449352 400.655339a30.291605 30.291605 0 0 1-14.435843 3.549797z" p-id="16695"></path><path d="M1122.09096 708.659427a29.581645 29.581645 0 0 1-29.581645-29.581645c0-121.994704-90.756487-231.091811-220.560745-265.288193A29.581645 29.581645 0 0 1 887.449352 356.519524c155.836106 41.17765 264.69656 173.821746 264.696559 322.558258a29.581645 29.581645 0 0 1-30.054951 29.581645z" p-id="16696"></path></svg>