<?xml version="1.0" standalone="no"?><!DOCTYPE svg PUBLIC "-//W3C//DTD SVG 1.1//EN" "http://www.w3.org/Graphics/SVG/1.1/DTD/svg11.dtd"><svg t="1715738528296" class="icon" viewBox="0 0 1024 1024" version="1.1" xmlns="http://www.w3.org/2000/svg" p-id="6230" xmlns:xlink="http://www.w3.org/1999/xlink" width="200" height="200"><path d="M937.2 833.2H141.9c-42 0-76.2-34.2-76.2-76.2V213.6c0-12.8 10.4-23.2 23.2-23.2s23.2 10.4 23.2 23.2V757c0 16.4 13.4 29.8 29.8 29.8h795.3c12.8 0 23.2 10.4 23.2 23.2 0 12.8-10.4 23.2-23.2 23.2z" fill="" p-id="6231"></path><path d="M178.3 694.1c-3.8 0-7.6-0.9-11.2-2.9-11.2-6.2-15.3-20.3-9.1-31.5l115.1-208.6c5-9.1 13.6-15.6 23.6-18 9.9-2.3 20.4-0.3 28.8 5.5l56.5 39 83.2-193.9c8.3-19.4 27.2-31.2 47.8-30.3 20.8 1 38.4 14.6 44.9 34.8l60.9 189.2L734 405.8c8.7-5.4 19.3-6.9 29.1-4 9.9 2.9 18.2 9.9 22.7 19.3l82.7 167.4c5.7 11.5 1 25.4-10.5 31.1-11.5 5.7-25.4 1-31.1-10.5l-78-157.8-116.7 72.5c-9.5 5.9-21 7.1-31.5 3.2-10.6-3.9-18.7-12.4-22.2-23.3l-64.8-201.2c-0.4-1.2-1.1-2.6-3-2.7-1.8-0.1-2.5 1.1-3 2.3l-88 205c-4.4 10.2-12.9 17.8-23.4 20.8-10.4 3-21.6 1.2-30.5-5l-57.4-39.6-109.8 198.8c-4.2 7.6-12.1 12-20.3 12z m565.8-252.7s0 0.1 0.1 0.1l-0.1-0.1z" fill="" p-id="6232"></path></svg>
