<?xml version="1.0" standalone="no"?><!DOCTYPE svg PUBLIC "-//W3C//DTD SVG 1.1//EN" "http://www.w3.org/Graphics/SVG/1.1/DTD/svg11.dtd"><svg t="1715404656289" class="icon" viewBox="0 0 1024 1024" version="1.1" xmlns="http://www.w3.org/2000/svg" p-id="5269" xmlns:xlink="http://www.w3.org/1999/xlink" width="200" height="200"><path d="M875.796875 229.2125H626.84375001c-21.890625-66.975-84.871875-115.528125-159.05625001-115.528125H141.771875c-32.08124999 0-58.18125001 26.1-58.18125 58.18125V845.75c0 35.7375 29.071875 64.809375 64.8 64.809375h727.41562501c35.728125 0 64.8-29.071875 64.8-64.809375V294.0125c-0.009375-35.728125-29.08125001-64.8-64.80937501-64.8z m-408.009375-52.96875001c38.85 0 72.43125001 21.4875 90.54375001 52.96875001H146.15v-52.96875001h321.6375zM878.0375 845.75c0 1.246875-1.0125 2.25-2.240625 2.25h-727.40625c-1.228125 0-2.240625-1.0125-2.240625-2.25V291.771875h729.65625001c1.228125 0 2.240625 1.0125 2.24062499 2.240625V845.75z" fill="#bfbfbf" p-id="5270"></path><path d="M268.38124999 467.80624999m-52.13437499 0a52.134375 52.134375 0 1 0 104.26875 0 52.134375 52.134375 0 1 0-104.26875 0Z" fill="#bfbfbf" p-id="5271"></path><path d="M781.1375 436.521875H412.390625c-17.278125 0-31.284375 13.996875-31.28437501 31.28437501s13.996875 31.284375 31.28437501 31.28437499h368.7375c17.278125 0 31.284375-13.996875 31.284375-31.28437499s-13.996875-31.284375-31.275-31.28437501z" fill="#bfbfbf" p-id="5272"></path><path d="M268.38124999 662.459375m-52.13437499 0a52.134375 52.134375 0 1 0 104.26875 0 52.134375 52.134375 0 1 0-104.26875 0Z" fill="#bfbfbf" p-id="5273"></path><path d="M781.1375 631.175H412.390625c-17.278125 0-31.284375 13.996875-31.28437501 31.284375s13.996875 31.284375 31.28437501 31.28437499h368.7375c17.278125 0 31.284375-13.996875 31.284375-31.28437499s-13.996875-31.284375-31.275-31.284375z" fill="#bfbfbf" p-id="5274"></path></svg>
