<svg version="1.1" xmlns="http://www.w3.org/2000/svg" fill-rule="evenodd" clip-rule="evenodd" height="64" width="64" viewBox="0 0 1024 1024" style="width: 64px; height: 64px;"><path d="M502.05858 104.724133c-113.297392 0-205.142194 91.845825-205.142194 205.142194s91.844801 205.142194 205.142194 205.142194c113.296369 0 205.142194-91.844801 205.142194-205.142194S615.354949 104.724133 502.05858 104.724133z"></path><path d="M868.526019 704.31812c0.063445-1.702782 0.096191-3.414773 0.096191-5.131881 0-74.954109-60.762899-135.717008-135.717008-135.717008s-135.717008 60.762899-135.717008 135.717008c0 1.717108 0.032746 3.430122 0.094144 5.131881-11.642155 6.691399-19.482727 19.25146-19.482727 33.645284l0 135.714961c0 21.416775 17.359366 38.776142 38.776142 38.776142l232.656851 0c21.415752 0 38.777165-17.359366 38.777165-38.776142L888.009769 737.962382C888.009769 723.56958 880.170221 711.008496 868.526019 704.31812L868.526019 704.31812zM752.294808 810.325479l0 43.965328-38.777165 0 0-43.965328c-11.589966-6.704702-19.388583-19.235087-19.388583-33.587979 0-21.414729 17.359366-38.775118 38.777165-38.775118 21.414729 0 38.775118 17.359366 38.775118 38.775118C771.681344 791.089369 763.883751 803.620777 752.294808 810.325479L752.294808 810.325479zM635.966383 699.185216c0-53.53938 43.401486-96.939843 96.939843-96.939843 53.537334 0 96.939843 43.401486 96.939843 96.939843L635.966383 699.185216 635.966383 699.185216zM635.966383 699.185216"></path><path d="M508.729513 752.448304c0-37.70167 26.653033-76.907601 27.288506-83.911108 2.87242-31.697933 29.335119-115.6336 111.958908-141.127228 5.841032-1.537006-7.357572-9.773598-16.908088-13.834076-45.754067-19.452028-63.282279-14.435781-122.881678-14.435781-205.559703 0-372.197954 166.639275-372.197954 372.197954 0 16.243963 1.046842 32.242332 3.064802 47.937802l7.924483 0 68.152193 0 286.948361-2.89391c2.927679-0.029676 5.288446-2.400676 5.298679-5.328355C507.504616 875.712699 508.729513 782.826172 508.729513 752.448304z"></path></svg>