<?xml version="1.0" standalone="no"?><!DOCTYPE svg PUBLIC "-//W3C//DTD SVG 1.1//EN" "http://www.w3.org/Graphics/SVG/1.1/DTD/svg11.dtd"><svg t="1715257869498" class="icon" viewBox="0 0 1024 1024" version="1.1" xmlns="http://www.w3.org/2000/svg" p-id="10786" xmlns:xlink="http://www.w3.org/1999/xlink" width="200" height="200"><path d="M676.571429 746.057143c-32.914286 0-60.342857 27.428571-60.342858 60.342857 0 32.914286 27.428571 60.342857 60.342858 60.342857 32.914286 0 60.342857-27.428571 60.342857-60.342857 0-32.914286-25.6-60.342857-60.342857-60.342857z m0 67.657143c-3.657143 0-5.485714-3.657143-5.485715-5.485715 0-3.657143 3.657143-5.485714 5.485715-5.485714 1.828571 0 5.485714 3.657143 5.485714 5.485714 1.828571 3.657143-1.828571 5.485714-5.485714 5.485715z" fill="#4C4C4C" p-id="10787"></path><path d="M848.457143 744.228571c-1.828571-7.314286-7.314286-12.8-14.628572-16.457142-5.485714-1.828571-10.971429-3.657143-18.285714-1.828572 3.657143-3.657143 7.314286-9.142857 7.314286-16.457143s-1.828571-14.628571-5.485714-20.114285c-27.428571-32.914286-65.828571-54.857143-109.714286-62.171429-7.314286-1.828571-14.628571 0-20.114286 5.485714-5.485714 3.657143-9.142857 9.142857-10.971428 14.628572-1.828571-5.485714-5.485714-10.971429-10.971429-14.628572-5.485714-3.657143-12.8-5.485714-20.114286-5.485714-42.057143 7.314286-82.285714 29.257143-109.714285 62.171429-5.485714 5.485714-7.314286 12.8-5.485715 20.114285 0 5.485714 3.657143 10.971429 7.314286 16.457143-5.485714-1.828571-12.8-1.828571-18.285714 1.828572-7.314286 3.657143-12.8 9.142857-14.628572 16.457142-7.314286 20.114286-10.971429 42.057143-10.971428 62.171429 0 21.942857 3.657143 42.057143 10.971428 62.171429 1.828571 7.314286 7.314286 12.8 14.628572 16.457142 5.485714 1.828571 10.971429 3.657143 18.285714 1.828572-3.657143 3.657143-7.314286 9.142857-7.314286 16.457143s1.828571 14.628571 5.485715 20.114285c27.428571 32.914286 65.828571 54.857143 109.714285 62.171429 7.314286 1.828571 14.628571 0 20.114286-5.485714 5.485714-3.657143 9.142857-9.142857 10.971429-14.628572 1.828571 5.485714 5.485714 10.971429 10.971428 14.628572 5.485714 3.657143 10.971429 5.485714 16.457143 5.485714h5.485714c42.057143-7.314286 82.285714-29.257143 109.714286-62.171429 5.485714-5.485714 7.314286-12.8 5.485714-20.114285 0-5.485714-3.657143-10.971429-7.314285-16.457143 5.485714 1.828571 12.8 1.828571 18.285714-1.828572 7.314286-3.657143 12.8-9.142857 14.628571-16.457142 7.314286-20.114286 10.971429-42.057143 10.971429-62.171429-1.828571-20.114286-5.485714-42.057143-12.8-62.171429zM804.571429 822.857143l-5.485715-1.828572c-12.8-5.485714-27.428571 0-34.742857 10.971429l-21.942857 36.571429c-7.314286 12.8-3.657143 27.428571 7.314286 34.742857l5.485714 3.657143c-9.142857 7.314286-18.285714 10.971429-27.428571 16.457142v-7.314285c-1.828571-12.8-12.8-23.771429-27.428572-23.771429h-43.885714c-14.628571 0-25.6 10.971429-27.428572 23.771429v7.314285c-9.142857-3.657143-18.285714-9.142857-27.428571-16.457142l5.485714-3.657143c10.971429-9.142857 14.628571-23.771429 7.314286-34.742857l-21.942857-36.571429c-7.314286-10.971429-21.942857-16.457143-34.742857-10.971429l-5.485715 1.828572c0-5.485714-1.828571-10.971429-1.828571-16.457143 0-5.485714 0-10.971429 1.828571-16.457143l5.485715 1.828572c12.8 5.485714 27.428571 0 34.742857-10.971429l21.942857-36.571429c7.314286-12.8 3.657143-27.428571-7.314286-34.742857l-5.485714-3.657143c9.142857-7.314286 18.285714-10.971429 27.428571-16.457142v7.314285c1.828571 12.8 12.8 23.771429 27.428572 23.771429h43.885714c14.628571 0 25.6-10.971429 27.428572-23.771429v-7.314285c9.142857 3.657143 18.285714 9.142857 27.428571 16.457142l-5.485714 3.657143c-10.971429 9.142857-14.628571 23.771429-7.314286 34.742857l21.942857 36.571429c7.314286 12.8 21.942857 16.457143 34.742857 10.971429l5.485715-1.828572c0 5.485714 1.828571 10.971429 1.828571 16.457143-1.828571 7.314286-1.828571 12.8-1.828571 16.457143z" fill="#4C4C4C" p-id="10788"></path><path d="M480.914286 970.971429c-9.142857-10.971429-16.457143-23.771429-20.114286-38.4-10.971429-10.971429-18.285714-21.942857-23.771429-36.571429-10.971429-27.428571-16.457143-58.514286-16.457142-87.771429 0-31.085714 5.485714-60.342857 16.457142-87.771428 5.485714-14.628571 12.8-25.6 23.771429-36.571429 3.657143-14.628571 10.971429-27.428571 20.114286-38.4 38.4-45.714286 93.257143-76.8 151.771428-87.771428 5.485714-1.828571 10.971429-1.828571 18.285715-1.828572 9.142857 0 18.285714 1.828571 27.428571 3.657143 9.142857-1.828571 18.285714-3.657143 25.6-3.657143 5.485714 0 10.971429 0 16.457143 1.828572 5.485714 1.828571 12.8 1.828571 18.285714 3.657143-34.742857-40.228571-76.8-71.314286-126.171428-93.257143C672.914286 424.228571 713.142857 354.742857 713.142857 274.285714c0-131.657143-106.057143-237.714286-237.714286-237.714285S237.714286 142.628571 237.714286 274.285714c0 80.457143 40.228571 149.942857 100.571428 193.828572C215.771429 521.142857 128 643.657143 128 786.285714v164.571429c0 20.114286 16.457143 36.571429 36.571429 36.571428h330.971428c-5.485714-5.485714-10.971429-10.971429-14.628571-16.457142z" fill="#4C4C4C" p-id="10789"></path></svg>