<?xml version="1.0" ?><svg height="64" id="svg3404" version="1.1" viewBox="0 0 16.933333 16.933333" width="64" xmlns="http://www.w3.org/2000/svg" xmlns:cc="http://creativecommons.org/ns#" xmlns:dc="http://purl.org/dc/elements/1.1/" xmlns:inkscape="http://www.inkscape.org/namespaces/inkscape" xmlns:rdf="http://www.w3.org/1999/02/22-rdf-syntax-ns#" xmlns:sodipodi="http://sodipodi.sourceforge.net/DTD/sodipodi-0.dtd" xmlns:svg="http://www.w3.org/2000/svg"><defs id="defs3398"/><path d="m 4.9160999,4.9232915 c -0.101796,0.1048001 -0.09941,0.2722002 0.0054,0.3740999 l 0.2050951,0.2051003 -0.7938,0.7936999 c -0.1031499,0.1034 -0.1031499,0.2707 6.1e-6,0.374 l 1.774563,1.7751998 -0.8029501,0.8029001 -0.7934488,-0.7938 c -0.10335,-0.1032999 -0.270941,-0.1032999 -0.374286,0 L 0.6067239,11.986192 c -0.10337999,0.1033 -0.10337999,0.2709 1e-6,0.374299 l 1.9611939,1.9618 c 0.103349,0.1034 0.27094,0.1034 0.374285,0 l 3.5301281,-3.531799 c 0.1031468,-0.1033 0.103146,-0.270601 3e-6,-0.373901 L 5.6787087,9.6225915 6.4814767,8.8197914 8.2551828,10.594192 c 0.1033499,0.1034 0.270941,0.1034 0.3742859,0 L 9.4230959,9.8005915 9.8719585,10.249391 c -0.1468986,0.305301 -0.1029696,0.682101 0.1486485,0.933801 0.317727,0.3179 0.841031,0.3179 1.158763,0 0.317727,-0.3178 0.317901,-0.841001 1.25e-4,-1.158901 -0.25154,-0.2515996 -0.62824,-0.2957995 -0.933471,-0.1489995 l -0.4486855,-0.449 0.7936285,-0.7935999 c 0.10331,-0.1033 0.103388,-0.2707 1.25e-4,-0.3741 L 8.8165177,6.4833915 9.6194689,5.6804917 10.413095,6.4743914 c 0.103377,0.1032002 0.270833,0.1031002 0.37411,0 L 14.31716,2.9427916 c 0.103311,-0.1033 0.103389,-0.2707 1.25e-4,-0.3741 l -1.961362,-1.962 c -0.103346,-0.1034 -0.270936,-0.1034 -0.374277,0 l -3.5301292,3.5318 c -0.103215,0.1033999 -0.1031369,0.2708 1.749e-4,0.3740999 l 0.7936262,0.7939 L 8.4425398,6.1092916 6.6684887,4.3345915 c -0.1033719,-0.1031999 -0.2708378,-0.1030999 -0.3741168,0 l -0.7938,0.7938 -0.204919,-0.2053 c -0.103976,-0.1068999 -0.275776,-0.1068999 -0.3796541,0 z m -0.022101,1.5599 1.587428,-1.5874 3.5484551,3.5498 -1.5874291,1.5873995 z m 7.2748941,-5.3152999 1.587075,1.5878 -0.802778,0.8027 -1.587252,-1.5876 z m -1.177062,1.177 1.587074,1.5877999 -0.802604,0.8026001 -1.587253,-1.5876 z m -1.1768895,1.1768999 1.5870745,1.5878 -0.802777,0.8027001 c -0.531455,-0.5502 -1.0498043,-1.0503001 -1.5870762,-1.5877 z m -5.4916675,5.4933 1.5870838,1.5877005 -0.8029499,0.803 -1.587075,-1.5877005 z m -1.1770621,1.1769995 1.5870839,1.587801 -0.802777,0.802699 -1.5872429,-1.587499 z m -1.1770611,1.177101 1.5872519,1.587899 -0.8027778,0.8027 -1.587261,-1.587899 z m 8.8346902,-0.972001 c 0.115534,0.115601 0.115538,0.295001 -6e-6,0.410601 -0.115542,0.1155 -0.294818,0.1157 -0.410366,0 -0.11554,-0.1156 -0.115542,-0.295301 9e-5,-0.410801 0.115621,-0.1155 0.294741,-0.1155 0.410282,10e-5 z m 1.767324,0.219801 c 5.02e-4,1.004 -0.954374,1.959199 -1.957374,1.959099 -0.359571,-0.01 -0.359743,0.5359 -1.25e-4,0.5291 1.32426,0 2.487359,-1.163299 2.486688,-2.488399 0.0032,-0.2412 -0.291649,-0.3606 -0.457149,-0.185001 -0.04719,0.05 -0.07298,0.116501 -0.07199,0.185201 z m 1.643355,-0.027 c 3.7e-4,2.035299 -1.587889,3.623799 -3.622144,3.623799 -0.359738,-0.01 -0.359566,0.5363 1.25e-4,0.5291 2.312524,0 4.151506,-1.8397 4.151111,-4.153099 0.0033,-0.241201 -0.291649,-0.3606 -0.45714,-0.185 -0.04719,0.05 -0.07298,0.1164 -0.072,0.1852 z m 1.660463,0 c 3.7e-4,2.902799 -2.381419,5.284899 -5.282942,5.284899 -0.352874,0 -0.352878,0.5293 -2e-6,0.5293 3.1913,0 5.812494,-2.622 5.812078,-5.814399 0.0033,-0.241201 -0.291656,-0.3606 -0.457159,-0.1851 -0.04719,0.05 -0.07296,0.1165 -0.07197,0.1853 z" id="comm-31_satellite" style="color:#000000;font-style:normal;font-variant:normal;font-weight:normal;font-stretch:normal;font-size:medium;line-height:normal;font-family:sans-serif;font-variant-ligatures:normal;font-variant-position:normal;font-variant-caps:normal;font-variant-numeric:normal;font-variant-alternates:normal;font-feature-settings:normal;text-indent:0;text-align:start;text-decoration:none;text-decoration-line:none;text-decoration-style:solid;text-decoration-color:#000000;letter-spacing:normal;word-spacing:normal;text-transform:none;writing-mode:lr-tb;direction:ltr;text-orientation:mixed;dominant-baseline:auto;baseline-shift:baseline;text-anchor:start;white-space:normal;shape-padding:0;clip-rule:nonzero;display:inline;overflow:visible;visibility:visible;opacity:1;isolation:auto;mix-blend-mode:normal;color-interpolation:sRGB;color-interpolation-filters:linearRGB;solid-color:#000000;solid-opacity:1;vector-effect:none;fill:#bfbfbf;fill-opacity:1;fill-rule:nonzero;stroke:none;stroke-width:4.23333311;stroke-linecap:round;stroke-linejoin:round;stroke-miterlimit:4;stroke-dasharray:none;stroke-dashoffset:0;stroke-opacity:1;paint-order:fill markers stroke;color-rendering:auto;image-rendering:auto;shape-rendering:auto;text-rendering:auto;enable-background:accumulate"/></svg>
