<?xml version="1.0" standalone="no"?><!DOCTYPE svg PUBLIC "-//W3C//DTD SVG 1.1//EN" "http://www.w3.org/Graphics/SVG/1.1/DTD/svg11.dtd"><svg t="1715410659539" class="icon" viewBox="0 0 1024 1024" version="1.1" xmlns="http://www.w3.org/2000/svg" p-id="15874" xmlns:xlink="http://www.w3.org/1999/xlink" width="200" height="200"><path d="M524.16 876.8H183.253333c-9.813333 0-19.413333-5.12-26.666666-13.653333-7.466667-8.96-10.88-20.266667-9.173334-30.293334 34.133333-193.706667 189.226667-318.933333 395.093334-318.933333 6.826667 0 13.226667-2.133333 18.346666-5.973333 94.506667-22.186667 165.12-107.093333 165.12-208.213334 0-117.973333-96-213.973333-213.973333-213.973333s-213.973333 96-213.973333 213.973333c0 71.253333 35.2 134.4 88.96 173.226667C228.053333 522.666667 114.986667 648.533333 84.48 821.973333c-5.12 28.8 3.2 58.666667 22.826667 82.346667 19.2 23.04 46.72 36.48 75.52 36.693333h341.12c17.706667 0 32-14.293333 32-32s-14.08-32.213333-31.786667-32.213333zM512 149.973333c82.773333 0 149.973333 67.413333 149.973333 149.973334S594.773333 450.133333 512 450.133333s-149.973333-67.413333-149.973333-149.973333S429.226667 149.973333 512 149.973333z" fill="#bfbfbf" p-id="15875"></path><path d="M808.32 695.893333h78.72a53.333333 53.333333 0 0 0 53.333333-53.333333v-78.72a53.333333 53.333333 0 0 0-53.333333-53.333333h-78.72c-29.013333 0-52.48 23.253333-53.12 52.053333h-120.32c-28.373333 0-51.626667 23.04-51.626667 51.626667v16.213333c0 1.28 0.213333 2.346667 0.426667 3.413333l-69.333333 69.333334c-16.64 16.64-16.64 43.733333 0 60.373333l69.12 69.12c0 0.853333-0.213333 1.493333-0.213334 2.346667v17.493333c0 28.373333 23.04 51.626667 51.626667 51.626667h122.88c6.826667 21.333333 26.88 37.12 50.56 37.12h78.72a53.333333 53.333333 0 0 0 53.333333-53.333334v-78.72a53.333333 53.333333 0 0 0-53.333333-53.333333h-78.72a53.333333 53.333333 0 0 0-53.333333 53.333333v31.146667h-107.733334v-5.12c0-0.853333-0.213333-1.493333-0.213333-2.346667l69.12-69.12c16.64-16.64 16.64-43.733333 0-60.373333l-69.333333-69.333333c0.213333-1.066667 0.426667-2.346667 0.426666-3.413334v-3.84h107.733334v16.213334c0 29.013333 23.893333 52.906667 53.333333 52.906666z m10.666667 123.52h57.386666v57.386667h-57.386666v-57.386667z m-203.733334-45.653333l-40.746666-40.746667 40.746666-40.533333 40.533334 40.533333-40.533334 40.746667z m203.733334-199.466667h57.386666v57.386667h-57.386666v-57.386667z" fill="#bfbfbf" p-id="15876"></path></svg>
