<?xml version="1.0" standalone="no"?><!DOCTYPE svg PUBLIC "-//W3C//DTD SVG 1.1//EN" "http://www.w3.org/Graphics/SVG/1.1/DTD/svg11.dtd"><svg t="1751312604382" class="icon" viewBox="0 0 1024 1024" version="1.1" xmlns="http://www.w3.org/2000/svg" p-id="7068" xmlns:xlink="http://www.w3.org/1999/xlink" width="200" height="200"><path d="M512 45.056c257.536 0 466.944 209.408 466.944 466.944s-209.408 466.944-466.944 466.944S45.056 769.536 45.056 512 254.464 45.056 512 45.056m0-40.96C231.424 4.096 4.096 231.424 4.096 512s227.328 507.904 507.904 507.904 507.904-227.328 507.904-507.904S792.576 4.096 512 4.096z" p-id="7069"></path><path d="M780.288 684.544h-38.4V376.832c0-14.336-11.264-25.6-25.6-25.6h-102.912v-76.8c0-21.504-4.608-38.912-25.6-38.912H331.264c-20.992 0-38.4 17.408-38.4 38.4v411.136h-38.4c-7.168 0-12.8 5.632-12.8 12.8v51.2c-0.512 7.168 5.12 13.312 12.288 13.312h526.336c7.168 0 12.8-5.632 12.8-12.8v-52.224c0-7.168-5.632-12.8-12.8-12.8z m-345.6-51.2c0 14.336-11.264 25.6-25.6 25.6h-27.136c-14.336 0-25.6-11.264-25.6-25.6v-25.6c0-14.336 11.264-25.6 25.6-25.6h26.112c14.336-0.512 26.112 10.752 26.624 24.576v26.624z m0-128.512c0 14.336-11.264 25.6-25.6 25.6h-27.136c-14.336 0-25.6-11.264-25.6-25.6v-25.6c0-14.336 11.264-25.6 25.6-25.6h26.112c14.336-0.512 26.112 10.752 26.624 24.576v26.624z m0-128c0 14.336-11.776 25.6-25.6 25.6H382.464c-13.824-0.512-25.088-11.776-25.088-25.6v-25.6c0-13.824 11.264-25.6 25.088-25.6h26.112c14.336-0.512 26.112 10.752 26.624 24.576v26.624z m115.2 256.512c0 14.336-11.264 25.6-25.6 25.6h-26.624c-14.336 0-25.6-11.264-25.6-25.6v-25.6c0-14.336 11.264-25.6 25.6-25.6h25.6c14.336 0 25.6 11.264 25.6 25.6l1.024 25.6z m0-128c0 14.336-11.264 25.6-25.6 25.6h-26.624c-14.336 0-25.6-11.264-25.6-25.6v-26.112c0-14.336 11.264-25.6 25.6-25.6h25.6c14.336 0 25.6 11.264 25.6 25.6l1.024 26.112z m0-128.512c0 14.336-11.264 25.6-25.6 25.6h-26.624c-14.336 0-25.6-11.264-25.6-25.6v-26.112c0-14.336 11.264-25.6 25.6-25.6h25.6c14.336 0 25.6 11.264 25.6 25.6l1.024 26.112z m140.8 218.112c0 7.168-5.632 12.8-12.8 12.8h-25.6c-7.168 0-12.8-5.632-12.8-12.8v-26.112c0-7.168 5.632-12.8 12.8-12.8h25.6c7.168 0 12.8 5.632 12.8 12.8v26.112z m0-102.4c0 7.168-5.632 12.8-12.8 12.8h-25.6c-7.168 0-12.8-5.632-12.8-12.8v-26.112c0-7.168 5.632-12.8 12.8-12.8h25.6c7.168 0 12.8 5.632 12.8 12.8v26.112z" p-id="7070"></path></svg>