<?xml version="1.0" standalone="no"?><!DOCTYPE svg PUBLIC "-//W3C//DTD SVG 1.1//EN" "http://www.w3.org/Graphics/SVG/1.1/DTD/svg11.dtd"><svg t="1715258437765" class="icon" viewBox="0 0 1024 1024" version="1.1" xmlns="http://www.w3.org/2000/svg" p-id="1688" xmlns:xlink="http://www.w3.org/1999/xlink" width="200" height="200"><path d="M41.4 469.8c2-114.7 45.2-219.2 132.5-303.7C238.3 103.6 315.5 63 404.1 45.9c44.2-8.5 88.7-11.1 133.6-6.2C681 55.1 793.4 122.1 874.3 241.4c8.3 12.2 14.9 25.6 22.4 38.4 24.2 41.7 36.9 87.1 44.6 134.3 2.2 13.8-4.7 24.8-17.8 27.6-11.8 2.5-24.8-6-26.9-18.8-5-30.7-12.2-60.9-24.1-89.7C830.7 232.1 759 160.3 659.4 115.8 624 100 586.8 89.3 548.3 85.1c-141.8-15.4-262.7 27.1-361 131.8-43.7 46.6-73.4 100.8-88.6 162.3C67.3 505.5 92.1 621 174 721.6c63.6 78 146.9 126 246.6 143.9 5.8 1 11.7 1.6 17.4 3 11.4 2.8 18.5 13.7 16.5 24.4-2.3 12.4-12.9 20.5-25 18.7-90.4-13.3-169.9-49.8-239.2-109.7-52.4-45.2-90.9-99.9-117.2-163.6-21.3-51.8-31.2-105.9-31.7-168.5z" fill="#bfbfbf" p-id="1689"></path><path d="M1015.7 911.6H562.1c0-11.3-0.7-22.6 0.1-33.7 4.7-62 30.4-114 76.3-155.8 10.7-9.8 22.9-18.1 34.9-26.3 4.9-3.4 6-6.6 5.4-12.1-5.1-43.5 0.7-85.1 23-123.4 15.4-26.5 36.1-47.2 66.9-55 33-8.3 60.9 2.7 84.4 25.6 25.6 24.9 38.5 56.4 44.6 91 3.7 21.3 4.1 42.6 0.9 64-0.6 4.1 0.6 6 3.9 7.8 41.7 22 71.7 55.2 91.9 97.4 17.4 36.5 23.2 75.3 22 115.4 0 1.6-0.4 3.2-0.7 5.1zM970.1 867c0.1-1.4 0.3-2.1 0.3-2.8-4.7-33.3-17-63.4-38.1-89.8-17.9-22.5-41.7-37-66.4-50.4-17-9.2-16.9-9.2-13.5-28.1 5.2-28.1 6-56.2-2.3-83.9-6.7-22.5-17.1-42.9-37-56.9-12.4-8.7-25.9-10.9-40.1-4.8-12.3 5.3-21.5 14.4-28.7 25.4-19.3 29.3-25.4 61.8-22.2 96.3 1.2 12.4 3.3 24.7 5.5 37 0.7 4.2-0.2 6.5-3.9 8.4-6.9 3.6-13.5 7.7-20.2 11.6-38.9 22.7-67.9 54.3-84.5 96.4-5.2 13.1-8.2 27.1-12.6 41.6h363.7zM551.2 385.7c0 37.2-0.5 74.5 0.2 111.7 0.4 21.1-17.1 34.3-33.5 34.3-63.4 0.1-126.7 0.2-190.1-0.1-15.1-0.1-27.5-11.6-29.1-25.7-1.8-16.2 7.1-30 22.2-33.9 4.3-1.1 8.9-1 13.3-1 48.5-0.1 97.1-0.2 145.6 0.1 6.9 0 8.6-1.9 8.6-8.7-0.2-62.9-0.2-125.8-0.1-188.7 0-16.9 8.6-28.8 22.4-33 16.4-5 41.1 7.5 40.7 31.9-0.6 37.7-0.2 75.4-0.2 113.1zM719 946.9h138.9c-0.2 10.3-3.6 19-9.6 26.8-11.7 14.9-27.5 22.6-45.8 25.3-22.2 3.3-43.2-0.2-61.7-13.6C728 976 720 963.8 719 946.9z" fill="#bfbfbf" p-id="1690"></path><path d="M788.2 674.2c-15.3-0.2-28.4-13.5-28.3-28.7 0.1-15.5 13.9-29 29.2-28.5 15.5 0.5 28.3 13.9 27.9 29-0.3 15.5-13.6 28.5-28.8 28.2z" fill="#bfbfbf" p-id="1691"></path></svg>
