<?xml version="1.0" standalone="no"?><!DOCTYPE svg PUBLIC "-//W3C//DTD SVG 1.1//EN" "http://www.w3.org/Graphics/SVG/1.1/DTD/svg11.dtd"><svg t="1716102291565" class="icon" viewBox="0 0 1024 1024" version="1.1" xmlns="http://www.w3.org/2000/svg" p-id="4606" xmlns:xlink="http://www.w3.org/1999/xlink" width="200" height="200"><path d="M913.9 161.1H296.7c-12.7 0-23.1 10.4-23.1 23.1 0 12.7 10.4 23.1 23.1 23.1h617.2c12.7 0 23.1-10.4 23.1-23.1 0-12.7-10.4-23.1-23.1-23.1z" fill="" p-id="4607"></path><path d="M181.5 299.8c-63.8 0-115.6-51.9-115.6-115.6S117.7 68.5 181.5 68.5s115.6 51.9 115.6 115.6-51.9 115.7-115.6 115.7z m0-185c-38.3 0-69.4 31.1-69.4 69.4s31.1 69.4 69.4 69.4 69.4-31.1 69.4-69.4-31.2-69.4-69.4-69.4zM728.5 821.4H112.1c-12.7 0-23.1 10.4-23.1 23.1 0 12.7 10.4 23.1 23.1 23.1h616.4c12.7 0 23.1-10.4 23.1-23.1 0-12.7-10.4-23.1-23.1-23.1z" fill="" p-id="4608"></path><path d="M844.5 960.1c-63.8 0-115.6-51.9-115.6-115.6s51.9-115.6 115.6-115.6 115.6 51.9 115.6 115.6-51.8 115.6-115.6 115.6z m0-185c-38.3 0-69.4 31.1-69.4 69.4 0 38.3 31.1 69.4 69.4 69.4s69.4-31.1 69.4-69.4c0-38.3-31.1-69.4-69.4-69.4z" fill="" p-id="4609"></path><path d="M513 630c-63.8 0-115.6-51.9-115.6-115.6S449.2 398.7 513 398.7s115.6 51.9 115.6 115.6S576.8 630 513 630z m0-185c-38.3 0-69.4 31.1-69.4 69.4s31.1 69.4 69.4 69.4 69.4-31.1 69.4-69.4S551.3 445 513 445z" fill="" p-id="4610"></path><path d="M936.4 537.5H605.5c-12.8 0-23.1-10.4-23.1-23.1 0-12.8 10.4-23.1 23.1-23.1h330.9c12.8 0 23.1 10.4 23.1 23.1 0 12.7-10.4 23.1-23.1 23.1zM420.5 537.5h-328c-12.8 0-23.1-10.4-23.1-23.1 0-12.8 10.4-23.1 23.1-23.1h328c12.8 0 23.1 10.4 23.1 23.1 0 12.7-10.3 23.1-23.1 23.1z" fill="" p-id="4611"></path></svg>
